<svg height='300px' width='300px'  fill="#000000" xmlns="http://www.w3.org/2000/svg" data-name="Layer 1" viewBox="0 0 32 32" x="0px" y="0px"><path d="M9,29H6a3,3,0,0,1-3-3V23a1,1,0,0,0-2,0v3a5.006,5.006,0,0,0,5,5H9a1,1,0,0,0,0-2Z"></path><path d="M30,22a1,1,0,0,0-1,1v3a3,3,0,0,1-3,3H23a1,1,0,0,0,0,2h3a5.006,5.006,0,0,0,5-5V23A1,1,0,0,0,30,22Z"></path><path d="M26,1H23a1,1,0,0,0,0,2h3a3,3,0,0,1,3,3V9a1,1,0,0,0,2,0V6A5.006,5.006,0,0,0,26,1Z"></path><path d="M2,10A1,1,0,0,0,3,9V6A3,3,0,0,1,6,3H9A1,1,0,0,0,9,1H6A5.006,5.006,0,0,0,1,6V9A1,1,0,0,0,2,10Z"></path><path d="M16,9a7,7,0,1,0,7,7A7.008,7.008,0,0,0,16,9Zm0,12a5,5,0,1,1,5-5A5.006,5.006,0,0,1,16,21Z"></path></svg>