<svg height='300px' width='300px'  fill="#000000" xmlns="http://www.w3.org/2000/svg" xmlns:xlink="http://www.w3.org/1999/xlink" version="1.1" x="0px" y="0px" viewBox="0 0 1080 1080" enable-background="new 0 0 1080 1080" xml:space="preserve"><text transform="matrix(1 0 0 1 46.374 1323.8779)" font-family="'MyriadPro-Regular'" font-size="72">Created by Benjamin Sommerlad</text><path d="M539,203.646c-117.475,0-213,95.572-213,213.047v246.613c0,117.475,95.525,213.047,213,213.047s213-95.572,213-213.047  V416.693C752,299.219,656.475,203.646,539,203.646z M730,663.307c0,105.388-85.613,191.126-191,191.126s-191-85.738-191-191.126V533  h382V663.307z M730,511H549V225.846c101,5.357,181,88.908,181,190.848V511z"></path></svg>