<svg height='300px' width='300px'  fill="#000000" xmlns="http://www.w3.org/2000/svg" viewBox="0 0 66 39" x="0px" y="0px"><path fill="#000000" d="M678.268241,73 L684.72064,73 L685.009008,70.8660821 C685.082968,70.3187721 685.586608,69.9350468 686.133918,70.0090076 C686.681228,70.0829684 687.064953,70.5866079 686.990992,71.1339179 L686.738819,73 L693.261181,73 L693.009008,71.1339179 C692.935047,70.5866079 693.318772,70.0829684 693.866082,70.0090076 C694.413392,69.9350468 694.917032,70.3187721 694.990992,70.8660821 L695.27936,73 L701.731759,73 L701.073261,71.3757051 C700.865765,70.8638811 701.112471,70.2807569 701.624295,70.0732607 C702.136119,69.8657645 702.719243,70.1124709 702.926739,70.6242949 L703.889863,73 L708,73 C708.552285,73 709,73.4477153 709,74 C709,74.5522847 708.552285,75 708,75 L704.700674,75 L707.133106,81 L712,81 C712.552285,81 713,81.4477153 713,82 C713,82.5522847 712.552285,83 712,83 L707.943917,83 L711.18716,91 L717,91 C717.552285,91 718,91.4477153 718,92 C718,92.5522847 717.552285,93 717,93 L711.997971,93 L716.052025,103 L722,103 C722.552285,103 723,103.447715 723,104 C723,104.552285 722.552285,105 722,105 L716.862836,105 L717.926739,107.624295 C718.134235,108.136119 717.887529,108.719243 717.375705,108.926739 C716.863881,109.134235 716.280757,108.887529 716.073261,108.375705 L714.704732,105 L699.603684,105 L699.990992,107.866082 C700.064953,108.413392 699.681228,108.917032 699.133918,108.990992 C698.586608,109.064953 698.082968,108.681228 698.009008,108.133918 L697.585505,105 L682.414495,105 L681.990992,108.133918 C681.917032,108.681228 681.413392,109.064953 680.866082,108.990992 C680.318772,108.917032 679.935047,108.413392 680.009008,107.866082 L680.396316,105 L665.295268,105 L663.926739,108.375705 C663.719243,108.887529 663.136119,109.134235 662.624295,108.926739 C662.112471,108.719243 661.865765,108.136119 662.073261,107.624295 L663.137164,105 L658,105 C657.447715,105 657,104.552285 657,104 C657,103.447715 657.447715,103 658,103 L663.947975,103 L668.002029,93 L663,93 C662.447715,93 662,92.5522847 662,92 C662,91.4477153 662.447715,91 663,91 L668.81284,91 L672.056083,83 L668,83 C667.447715,83 667,82.5522847 667,82 C667,81.4477153 667.447715,81 668,81 L672.866894,81 L675.299326,75 L672,75 C671.447715,75 671,74.5522847 671,74 C671,73.4477153 671.447715,73 672,73 L676.110137,73 L677.073261,70.6242949 C677.280757,70.1124709 677.863881,69.8657645 678.375705,70.0732607 C678.887529,70.2807569 679.134235,70.8638811 678.926739,71.3757051 L678.268241,73 Z M677.457431,75 L675.024998,81 L683.639559,81 L684.45037,75 L677.457431,75 Z M674.214187,83 L670.970944,91 L682.288208,91 L683.369289,83 L674.214187,83 Z M670.160133,93 L666.106079,103 L680.666586,103 L682.017938,93 L670.160133,93 Z M702.542569,75 L695.54963,75 L696.360441,81 L704.975002,81 L702.542569,75 Z M705.785813,83 L696.630711,83 L697.711792,91 L709.029056,91 L705.785813,83 Z M709.839867,93 L697.982062,93 L699.333414,103 L713.893921,103 L709.839867,93 Z M697.315235,103 L695.963884,93 L684.036116,93 L682.684765,103 L697.315235,103 Z M695.693613,91 L694.612532,83 L685.387468,83 L684.306387,91 L695.693613,91 Z M694.342262,81 L693.531451,75 L686.468549,75 L685.657738,81 L694.342262,81 Z" transform="translate(-657 -70)"></path></svg>