<svg height='300px' width='300px'  fill="#000000" xmlns="http://www.w3.org/2000/svg" xmlns:cc="http://creativecommons.org/ns#" xmlns:dc="http://purl.org/dc/elements/1.1/" xmlns:rdf="http://www.w3.org/1999/02/22-rdf-syntax-ns#" version="1.1" viewBox="0 -43 75 75" x="0px" y="0px"><path d="m37.5-36.652c-0.65226 0-1.181 0.52877-1.181 1.181v6.9389c0 0.65226 0.52877 1.1812 1.181 1.1812s1.1812-0.52899 1.1812-1.1812v-6.9389c0-0.65226-0.52899-1.181-1.1812-1.181zm12.398 1.3501c-0.05212-0.0031-0.10474-0.0028-0.15766 1e-3 -0.4233 0.03057-0.79766 0.28605-0.9799 0.66956l-2.7381 5.6119c-0.28662 0.58651-0.04333 1.2936 0.54261 1.5796 0.58651 0.28662 1.2942 0.04325 1.5803-0.54326l2.7381-5.6132c0.18916-0.37948 0.16032-0.83212-0.07613-1.1845-0.20639-0.30832-0.54433-0.49916-0.90918-0.5212zm-24.667 0.016c-0.18925-0.0078-0.38308 0.02988-0.5651 0.11873-0.58305 0.28432-0.82758 0.98516-0.54845 1.5705l2.7381 5.6136c0.18282 0.38294 0.55703 0.63842 0.98034 0.66956 0.42388 0.03057 0.83104-0.1684 1.0675-0.52077 0.23588-0.35295 0.26478-0.80509 0.07504-1.1851l-2.7381-5.6132c-0.19864-0.39887-0.59296-0.63625-1.0093-0.65334zm-14.763 14.136c-1.2146-0.0098-2.3817 0.46822-3.2399 1.3281-0.85757 0.85987-1.3345 2.0284-1.3218 3.2429v3.8443h-4.6627c-0.65226 4e-6 -1.2429 0.4791-1.2429 1.1319v12.204c0 0.65284 0.59062 1.1322 1.2429 1.1322h4.6627v1.2636c-0.020185 2.2515 1.5951 4.1852 3.8143 4.5658l15.045 2.5814c0.25491 0.04441 0.51334 0.06618 0.77228 0.06618 1.5479-5.9e-4 2.9931-0.77438 3.8513-2.0627l3.7429-5.6173c0.97695-1.4654 2.6216-2.3454 4.3828-2.3454 1.7613 0 3.406 0.87999 4.3824 2.3454l3.7446 5.6166c1.0156 1.5231 2.8328 2.3052 4.6367 1.9972l15.088-2.5814c2.2319-0.37486 3.8692-2.3034 3.8761-4.5658v-1.2636h4.515c0.65226 0 1.2429-0.47932 1.2429-1.1322v-12.204c0-0.65284-0.59062-1.1319-1.2429-1.1319h-4.515v-3.8443c0-2.5542-2.1299-4.571-4.6841-4.571zm0 2.3621h54.091c1.252 0 2.3218 0.9569 2.3218 2.2089v4.7354c0 0.07786-0.02487 0.15845-0.02487 0.24092 0 0.08247 0.02487 0.16206 0.02487 0.24049v11.723c0 0.07786-0.02487 0.15802-0.02487 0.24049 0 0.08247 0.02487 0.16249 0.02487 0.24092v2.1547c-0.0092 1.1113-0.81597 2.0559-1.9129 2.2381l-15.075 2.5814c-0.8864 0.1511-1.7785-0.23169-2.2797-0.97796l-3.7475-5.6173c-1.4158-2.1223-3.7989-3.3973-6.3502-3.3973-2.5519 0-4.9344 1.275-6.3502 3.3973l-3.7451 5.6166c-0.4977 0.74626-1.3887 1.1297-2.2734 0.9786l-15.027-2.5813c-1.0836-0.18858-1.8691-1.1377-1.8512-2.2375v-19.577c-0.013264-0.58824 0.21468-1.1563 0.62933-1.5727 0.41523-0.41696 0.98264-0.64656 1.5703-0.63561zm10.204 5.0585c-4.0733 0-7.3749 3.3022-7.3749 7.3749 0 4.0733 3.3016 7.3755 7.3749 7.3755s7.3751-3.3022 7.3751-7.3755c-0.0046-4.071-3.3041-7.3703-7.3751-7.3749zm33.658 0c-4.0733 0-7.3749 3.3022-7.3749 7.3749 0 4.0733 3.3016 7.3755 7.3749 7.3755 4.0733 0 7.3751-3.3022 7.3751-7.3755-4e-3 -4.071-3.3035-7.3703-7.3751-7.3749zm-33.658 2.3621c2.7682 0 5.0128 2.2446 5.0128 5.0128-0.0029 2.7676-2.2458 5.0098-5.0128 5.0133-2.7688 0-5.0126-2.2445-5.0126-5.0133 0-2.7682 2.2438-5.0128 5.0126-5.0128zm33.658 0c2.7688 0 5.0128 2.2446 5.0128 5.0128-0.0029 2.7676-2.2458 5.0098-5.0128 5.0133-2.7682 0-5.0126-2.2445-5.0126-5.0133 0-2.7682 2.2444-5.0128 5.0126-5.0128zm-51.967 0.99482h3.5433v9.7441h-3.5433zm66.88 0h3.3956v9.7441h-3.3956zm-22.108 26.692c-0.1903-0.0084-0.38528 0.02934-0.56856 0.11873-0.58651 0.28605-0.82996 0.99309-0.54391 1.5796l2.7381 5.6132c0.28893 0.58017 0.99194 0.81893 1.5744 0.53461 0.58305-0.28432 0.82758-0.98516 0.54845-1.5705l-2.7375-5.613c-0.19666-0.40283-0.59238-0.64419-1.011-0.66264zm-19.267 2.96e-4c-0.41883 0.01813-0.81482 0.2592-1.0115 0.66242l-2.7381 5.613c-0.18916 0.37948-0.16032 0.83234 0.07613 1.1847 0.23587 0.35237 0.64354 0.55126 1.0668 0.52012 0.4233-0.03057 0.79766-0.28605 0.9799-0.66956l2.7381-5.6132c0.28605-0.58594 0.04275-1.2923-0.54261-1.5783-0.18328-0.08957-0.3784-0.1274-0.56878-0.11916zm9.6334 0.03028c-0.65226-4e-6 -1.181 0.52877-1.181 1.181v6.9391c0 0.65226 0.52877 1.181 1.181 1.181s1.1812-0.52877 1.1812-1.181v-6.9391c0-0.65226-0.52899-1.181-1.1812-1.181z" stroke-width=".14764"></path></svg>