<svg width="24" height="24" viewBox="0 0 24 24" fill="none" xmlns="http://www.w3.org/2000/svg">
<path fill-rule="evenodd" clip-rule="evenodd" d="M9.59143 2.49982C6.74353 2.49982 4.45743 4.78628 4.45743 7.63382C4.45743 10.4822 6.74335 12.7688 9.59143 12.7688C12.4396 12.7688 14.7264 10.482 14.7264 7.63382C14.7264 4.78642 12.4395 2.49982 9.59143 2.49982ZM9.59143 3.99982C11.6111 3.99982 13.2264 5.6149 13.2264 7.63382C13.2264 9.6536 11.6112 11.2688 9.59143 11.2688C7.57189 11.2688 5.95743 9.65385 5.95743 7.63382C5.95743 5.61466 7.57201 3.99982 9.59143 3.99982ZM20.0671 7.61642C20.0671 5.38189 18.255 3.56942 16.0201 3.56942C15.6059 3.56942 15.2701 3.9052 15.2701 4.31942C15.2701 4.73363 15.6059 5.06942 16.0201 5.06942C17.4265 5.06942 18.5671 6.21025 18.5671 7.61642C18.5671 9.0232 17.4269 10.1634 16.0201 10.1634C15.6059 10.1634 15.2701 10.4992 15.2701 10.9134C15.2701 11.3276 15.6059 11.6634 16.0201 11.6634C18.2553 11.6634 20.0671 9.85163 20.0671 7.61642ZM19.2995 13.9938C18.7449 13.8709 18.1677 13.7876 17.5871 13.7481C17.1739 13.72 16.8161 14.0323 16.788 14.4455C16.7598 14.8588 17.0721 15.2166 17.4853 15.2447C17.9909 15.2791 18.4937 15.3516 18.9911 15.4617C19.7677 15.6163 20.2821 15.8733 20.4212 16.1651C20.526 16.3857 20.526 16.6442 20.4208 16.8655C20.2827 17.1563 19.771 17.4127 19.0021 17.5708C18.5964 17.6542 18.3352 18.0508 18.4186 18.4565C18.5021 18.8622 18.8986 19.1235 19.3043 19.04C20.4991 18.7943 21.3732 18.3563 21.7757 17.5093C22.0744 16.8807 22.0744 16.1492 21.7756 15.5205C21.3709 14.6713 20.4876 14.2302 19.2995 13.9938ZM2.00043 18.0183C2.00043 15.3938 4.75802 14.4563 9.59143 14.4563L9.91121 14.4577C14.5556 14.4981 17.1834 15.4362 17.1834 17.9983C17.1834 20.5062 14.6649 21.4737 10.2236 21.5547L9.59143 21.5603C4.74709 21.5603 2.00043 20.6394 2.00043 18.0183ZM15.6834 17.9983C15.6834 16.6506 13.6129 15.9563 9.59143 15.9563C5.57408 15.9563 3.50043 16.6613 3.50043 18.0183C3.50043 19.3668 5.5691 20.0603 9.59143 20.0603C13.6091 20.0603 15.6834 19.3553 15.6834 17.9983Z" fill="#200E32"/>
</svg>
