<svg width="24" height="24" viewBox="0 0 24 24" fill="none" xmlns="http://www.w3.org/2000/svg">
<path fill-rule="evenodd" clip-rule="evenodd" d="M11.9378 3.4375C9.38221 3.4375 7.32951 5.4902 7.32951 8.04575C7.32951 10.602 9.38204 12.6549 11.9378 12.6549C14.4935 12.6549 16.546 10.602 16.546 8.04575C16.546 5.4902 14.4933 3.4375 11.9378 3.4375ZM11.9378 4.9375C13.6649 4.9375 15.046 6.31863 15.046 8.04575C15.046 9.77367 13.665 11.1549 11.9378 11.1549C10.2105 11.1549 8.82951 9.77367 8.82951 8.04575C8.82951 6.31863 10.2106 4.9375 11.9378 4.9375ZM6.28999 4.37937C6.7042 4.37937 7.03999 4.71516 7.03999 5.12937C7.03999 5.54359 6.7042 5.87937 6.28999 5.87937C5.10162 5.87937 4.13782 6.84275 4.13782 8.03062C4.13782 9.2185 5.10162 10.1819 6.28999 10.1819C6.7042 10.1819 7.03999 10.5177 7.03999 10.9319C7.03999 11.3461 6.7042 11.6819 6.28999 11.6819C4.27334 11.6819 2.63782 10.0471 2.63782 8.03062C2.63782 6.01418 4.27334 4.37937 6.28999 4.37937ZM21.247 8.03062C21.247 6.01418 19.6115 4.37937 17.5949 4.37937C17.1807 4.37937 16.8449 4.71516 16.8449 5.12937C16.8449 5.54359 17.1807 5.87937 17.5949 5.87937C18.7832 5.87937 19.747 6.84275 19.747 8.03062C19.747 9.2185 18.7832 10.1819 17.5949 10.1819C17.1807 10.1819 16.8449 10.5177 16.8449 10.9319C16.8449 11.3461 17.1807 11.6819 17.5949 11.6819C19.6115 11.6819 21.247 10.0471 21.247 8.03062ZM20.4958 13.555C20.0156 13.4466 19.5025 13.3725 18.9807 13.3365C18.5675 13.308 18.2094 13.6199 18.1809 14.0331C18.1524 14.4464 18.4642 14.8045 18.8775 14.833C19.324 14.8638 19.7616 14.9269 20.1871 15.0227C20.8488 15.1525 21.2801 15.3678 21.3872 15.5921C21.4677 15.7615 21.4677 15.9606 21.3864 16.132C21.2808 16.3541 20.853 16.5682 20.2007 16.7024C19.795 16.7858 19.5337 17.1823 19.6171 17.5881C19.7006 17.9938 20.0971 18.2551 20.5028 18.1716C21.581 17.9499 22.3708 17.5546 22.7414 16.7756C23.0161 16.1964 23.0161 15.5247 22.7414 14.947C22.3682 14.1651 21.5648 13.7643 20.4958 13.555ZM5.704 14.0331C5.67551 13.6199 5.31741 13.308 4.90418 13.3365C4.38239 13.3725 3.86922 13.4466 3.36845 13.5593L3.162 13.603C2.21438 13.8195 1.49143 14.2174 1.14442 14.9469C0.868561 15.5241 0.868561 16.197 1.14471 16.7762C1.51363 17.5544 2.30341 17.9498 3.38205 18.1716C3.78777 18.2551 4.18431 17.9938 4.26774 17.5881C4.35117 17.1823 4.0899 16.7858 3.68418 16.7024C3.03209 16.5683 2.60472 16.3543 2.49939 16.1321C2.41734 15.96 2.41734 15.7621 2.49838 15.5925C2.60537 15.3676 3.03633 15.1525 3.67721 15.027L4.01044 14.9588C4.34262 14.8974 4.67249 14.8561 5.00738 14.833C5.42062 14.8045 5.7325 14.4464 5.704 14.0331ZM5.16709 17.1845C5.16709 14.7986 7.63503 13.9595 11.9378 13.9595L12.2426 13.961C16.3655 13.9997 18.7084 14.8407 18.7084 17.1671C18.7084 19.4388 16.4689 20.3087 12.5397 20.3863L11.9378 20.3921C7.62516 20.3921 5.16709 19.5678 5.16709 17.1845ZM17.2084 17.1671C17.2084 16.0566 15.4279 15.4595 11.9378 15.4595C8.45105 15.4595 6.66709 16.0661 6.66709 17.1845C6.66709 18.2952 8.44707 18.8921 11.9378 18.8921C15.4234 18.8921 17.2084 18.2851 17.2084 17.1671Z" fill="#200E32"/>
</svg>
