<svg width="24" height="24" viewBox="0 0 24 24" fill="none" xmlns="http://www.w3.org/2000/svg">
<path fill-rule="evenodd" clip-rule="evenodd" d="M16.8212 4.58138C16.8212 3.15572 17.9805 2 19.4106 2C20.8407 2 22 3.15572 22 4.58138C22 6.00703 20.8407 7.16275 19.4106 7.16275C17.9805 7.16275 16.8212 6.00703 16.8212 4.58138ZM20.5465 4.58138C20.5465 3.95599 20.0379 3.44902 19.4106 3.44902C18.7833 3.44902 18.2747 3.95599 18.2747 4.58138C18.2747 5.20676 18.7833 5.71373 19.4106 5.71373C20.0379 5.71373 20.5465 5.20676 20.5465 4.58138ZM15.5277 9.54022C15.7736 9.22392 16.2301 9.16618 16.5473 9.41126C16.8358 9.63406 16.9099 10.0304 16.7363 10.3383L16.6767 10.4277L13.8384 14.0796C13.6139 14.3685 13.2139 14.4415 12.9047 14.2658L12.815 14.2056L10.0835 12.0668L7.63115 15.2448C7.40864 15.5331 7.01131 15.6083 6.7019 15.4363L6.61198 15.3772C6.32279 15.1554 6.24735 14.7593 6.41992 14.4508L6.47916 14.3612L9.37954 10.6032C9.60364 10.3129 10.0046 10.239 10.3145 10.415L10.4045 10.4753L13.1368 12.6155L15.5277 9.54022ZM15.2236 3.53799C15.2236 3.13786 14.8982 2.81348 14.4968 2.81348H7.45429L7.22732 2.81726C4.07521 2.92283 2 5.23062 2 8.50732V16.315L2.00348 16.5481C2.10063 19.7878 4.2269 22 7.45429 22H15.7918L16.0188 21.9962C19.1721 21.891 21.2461 19.5901 21.2461 16.315V9.51534L21.2394 9.41702C21.1913 9.06339 20.8872 8.79083 20.5193 8.79083C20.1179 8.79083 19.7926 9.1152 19.7926 9.51534V16.315L19.7886 16.5399C19.7007 18.9868 18.1725 20.551 15.7918 20.551H7.45429L7.2384 20.5467C4.89102 20.4534 3.45352 18.8291 3.45352 16.315V8.50732L3.45752 8.28224C3.54548 5.83278 5.07567 4.2625 7.45429 4.2625H14.4968L14.5954 4.25589C14.9502 4.20791 15.2236 3.90478 15.2236 3.53799Z" fill="#200E32"/>
</svg>
