<svg width="24" height="24" viewBox="0 0 24 24" fill="none" xmlns="http://www.w3.org/2000/svg">
<path fill-rule="evenodd" clip-rule="evenodd" d="M3.63459 11.2894C3.27622 11.3369 3 11.637 3 12C3 12.3961 3.32872 12.7171 3.73421 12.7171L11.7616 12.7171L11.7616 16.7817C11.7616 17.3462 12.3983 17.6893 12.8872 17.3885L20.6572 12.6067C21.1143 12.3254 21.1143 11.6746 20.6572 11.3933L12.8872 6.61155C12.3983 6.31066 11.7616 6.65385 11.7616 7.21827L11.7616 11.2829L3.73421 11.2829L3.63459 11.2894ZM13.2293 12.0334C13.2298 12.0223 13.2301 12.0112 13.2301 12C13.2301 11.9888 13.2298 11.9777 13.2293 11.9666L13.2293 8.51893L18.8876 12.0003L13.2293 15.4826L13.2293 12.0334Z" fill="#200E32"/>
</svg>
