<svg width="24" height="24" viewBox="0 0 24 24" fill="none" xmlns="http://www.w3.org/2000/svg">
<path fill-rule="evenodd" clip-rule="evenodd" d="M7.66588 2H16.3349C19.7385 2 21.9999 4.42931 21.9999 7.916V16.084C21.9999 19.567 19.7318 22 16.3349 22H7.66588C4.26209 22 1.99988 19.5705 1.99988 16.084V7.916C1.99988 4.4295 4.26209 2 7.66588 2ZM16.3349 3.5H7.66588C5.11538 3.5 3.49988 5.23496 3.49988 7.916V16.084C3.49988 18.765 5.11538 20.5 7.66588 20.5H16.3349C18.8789 20.5 20.4999 18.7612 20.4999 16.084V7.916C20.4999 5.23468 18.8851 3.5 16.3349 3.5ZM11.9999 7.164C12.3796 7.164 12.6934 7.44615 12.743 7.81223L12.7499 7.914V14.2692L15.2164 11.7931C15.4821 11.5263 15.8987 11.5012 16.1928 11.7184L16.2771 11.7908C16.5439 12.0565 16.569 12.4732 16.3518 12.7672L16.2793 12.8515L12.5313 16.6155C12.2648 16.8831 11.8467 16.9075 11.5526 16.6885L11.5495 16.6858C11.5217 16.6648 11.4953 16.642 11.4707 16.6174L11.4684 16.6155L7.72042 12.8515C7.42815 12.558 7.42916 12.0831 7.72268 11.7908C7.98951 11.5251 8.40623 11.5018 8.69937 11.7203L8.78334 11.7931L11.2499 14.2706V7.914C11.2499 7.49979 11.5857 7.164 11.9999 7.164Z" fill="#200E32"/>
</svg>
