<svg width="24" height="24" viewBox="0 0 24 24" fill="none" xmlns="http://www.w3.org/2000/svg">
<path fill-rule="evenodd" clip-rule="evenodd" d="M2 16.334L2 7.665C2 4.26137 4.42931 2 7.916 2H16.084C19.567 2 22 4.2681 22 7.665V16.334C22 19.7378 19.5705 22 16.084 22H7.916C4.4295 22 2 19.7378 2 16.334ZM3.5 7.665L3.5 16.334C3.5 18.8845 5.23496 20.5 7.916 20.5H16.084C18.765 20.5 20.5 18.8845 20.5 16.334V7.665C20.5 5.12096 18.7612 3.5 16.084 3.5H7.916C5.23468 3.5 3.5 5.11476 3.5 7.665ZM7.164 12C7.164 11.6203 7.44615 11.3065 7.81223 11.2568L7.914 11.25H14.2692L11.7931 8.78346C11.5263 8.51776 11.5012 8.10115 11.7184 7.80707L11.7908 7.7228C12.0565 7.45597 12.4732 7.43087 12.7672 7.6481L12.8515 7.72054L16.6155 11.4685C16.8831 11.735 16.9075 12.1532 16.6885 12.4472L16.6858 12.4503C16.6648 12.4782 16.642 12.5046 16.6174 12.5292L16.6155 12.5315L12.8515 16.2795C12.558 16.5717 12.0831 16.5707 11.7908 16.2772C11.5251 16.0104 11.5018 15.5937 11.7203 15.3005L11.7931 15.2165L14.2706 12.75H7.914C7.49979 12.75 7.164 12.4142 7.164 12Z" fill="#200E32"/>
</svg>
