<svg width="24" height="24" viewBox="0 0 24 24" fill="none" xmlns="http://www.w3.org/2000/svg">
<path fill-rule="evenodd" clip-rule="evenodd" d="M11.1771 20.2928C11.2321 20.6922 11.5795 21 11.9999 21C12.4585 21 12.8302 20.6337 12.8302 20.1818L12.8302 5.80007L18.0813 10.9953L18.1743 11.0747C18.4989 11.313 18.9602 11.2876 19.2556 10.9977C19.5805 10.6788 19.5816 10.1608 19.258 9.84062L12.5996 3.25226C12.5614 3.21304 12.5194 3.17756 12.474 3.14642C12.1498 2.92336 11.6999 2.95478 11.4111 3.24067L4.74193 9.84067L4.66174 9.9326C4.42125 10.2534 4.44905 10.7079 4.74446 10.9977C5.06942 11.3166 5.59515 11.3155 5.91871 10.9953L11.1696 5.79877L11.1696 20.1818L11.1771 20.2928Z" fill="#200E32"/>
</svg>
