<svg width="24" height="24" viewBox="0 0 24 24" fill="none" xmlns="http://www.w3.org/2000/svg">
<path fill-rule="evenodd" clip-rule="evenodd" d="M11.2894 20.3654C11.3369 20.7238 11.637 21 12 21C12.3961 21 12.7171 20.6713 12.7171 20.2658V12.2384H16.7817C17.3462 12.2384 17.6893 11.6017 17.3885 11.1128L12.6067 3.34281C12.3254 2.88573 11.6746 2.88573 11.3933 3.34281L6.61155 11.1128C6.31066 11.6017 6.65385 12.2384 7.21827 12.2384L11.2829 12.2384V20.2658L11.2894 20.3654ZM12.0334 10.7707C12.0223 10.7702 12.0112 10.7699 12 10.7699C11.9888 10.7699 11.9777 10.7702 11.9666 10.7707L8.51893 10.7707L12.0003 5.11238L15.4826 10.7707H12.0334Z" fill="#200E32"/>
</svg>
