<svg width="24" height="24" viewBox="0 0 24 24" fill="none" xmlns="http://www.w3.org/2000/svg">
<path fill-rule="evenodd" clip-rule="evenodd" d="M12.8229 3.70716C12.7679 3.3078 12.4205 3 12.0001 3C11.5415 3 11.1698 3.36631 11.1698 3.81818V18.1999L5.91866 13.0047L5.8257 12.9253C5.50114 12.687 5.0398 12.7124 4.74441 13.0023C4.41948 13.3212 4.41839 13.8392 4.74198 14.1594L11.4004 20.7477C11.4386 20.787 11.4806 20.8224 11.526 20.8536C11.8502 21.0766 12.3001 21.0452 12.5889 20.7593L19.2581 14.1593L19.3383 14.0674C19.5787 13.7466 19.551 13.2921 19.2555 13.0023C18.9306 12.6834 18.4049 12.6845 18.0813 13.0047L12.8304 18.2012V3.81818L12.8229 3.70716Z" fill="#200E32"/>
</svg>
