<svg width="24" height="24" viewBox="0 0 24 24" fill="none" xmlns="http://www.w3.org/2000/svg">
<path fill-rule="evenodd" clip-rule="evenodd" d="M12.0002 2C6.47736 2 2.00024 6.47745 2.00024 12C2.00024 17.5225 6.47736 22 12.0002 22C17.5225 22 22.0002 17.5222 22.0002 12C22.0002 6.47779 17.5225 2 12.0002 2ZM12.0002 3.5C16.694 3.5 20.5002 7.30621 20.5002 12C20.5002 16.6938 16.694 20.5 12.0002 20.5C7.30582 20.5 3.50024 16.6941 3.50024 12C3.50024 7.30586 7.30582 3.5 12.0002 3.5ZM8.97655 9.95572C8.68341 9.73723 8.2667 9.76054 7.99986 10.0262C7.70633 10.3185 7.70531 10.7934 7.99757 11.0869L11.4686 14.5729L11.5528 14.6459C11.8469 14.8649 12.265 14.8405 12.5315 14.5729L16.0025 11.0869L16.075 11.0026C16.2922 10.7085 16.2671 10.2919 16.0002 10.0262L15.916 9.95379C15.6219 9.73657 15.2053 9.76167 14.9396 10.0285L11.999 12.98L9.06052 10.0285L8.97655 9.95572Z" fill="#200E32"/>
</svg>
