<svg width="24" height="24" viewBox="0 0 24 24" fill="none" xmlns="http://www.w3.org/2000/svg">
<path fill-rule="evenodd" clip-rule="evenodd" d="M11.9998 22C17.5226 22 21.9998 17.5225 21.9998 12C21.9998 6.47745 17.5226 2 11.9998 2C6.47754 2 1.99976 6.47779 1.99976 12C1.99976 17.5222 6.47754 22 11.9998 22ZM11.9998 20.5C7.30597 20.5 3.49976 16.6938 3.49976 12C3.49976 7.30621 7.30597 3.5 11.9998 3.5C16.6942 3.5 20.4998 7.30586 20.4998 12C20.4998 16.6941 16.6942 20.5 11.9998 20.5ZM15.0234 14.0443C15.3166 14.2628 15.7333 14.2395 16.0001 13.9738C16.2937 13.6815 16.2947 13.2066 16.0024 12.9131L12.5314 9.42711L12.4472 9.35412C12.1531 9.13513 11.735 9.15946 11.4685 9.42711L7.99748 12.9131L7.92505 12.9974C7.70783 13.2915 7.73293 13.7081 7.99977 13.9738L8.08405 14.0462C8.37813 14.2634 8.79474 14.2383 9.06043 13.9715L12.001 11.02L14.9395 13.9715L15.0234 14.0443Z" fill="#200E32"/>
</svg>
