<svg width="24" height="24" viewBox="0 0 24 24" fill="none" xmlns="http://www.w3.org/2000/svg">
<path fill-rule="evenodd" clip-rule="evenodd" d="M20.3654 12.7106C20.7238 12.6631 21 12.363 21 12C21 11.6039 20.6713 11.2829 20.2658 11.2829L12.2384 11.2829V7.21827C12.2384 6.65385 11.6017 6.31066 11.1128 6.61155L3.34281 11.3933C2.88573 11.6746 2.88573 12.3254 3.34281 12.6067L11.1128 17.3885C11.6017 17.6893 12.2384 17.3462 12.2384 16.7817V12.7171L20.2658 12.7171L20.3654 12.7106ZM10.7707 11.9666C10.7702 11.9777 10.7699 11.9888 10.7699 12C10.7699 12.0112 10.7702 12.0223 10.7707 12.0334V15.4811L5.11238 11.9997L10.7707 8.5174L10.7707 11.9666Z" fill="#200E32"/>
</svg>
