<svg width="24" height="24" viewBox="0 0 24 24" fill="none" xmlns="http://www.w3.org/2000/svg">
<path fill-rule="evenodd" clip-rule="evenodd" d="M12.7106 3.63459C12.6631 3.27622 12.363 3 12 3C11.6039 3 11.2829 3.32872 11.2829 3.73421L11.2829 11.7616L7.21827 11.7616C6.65385 11.7616 6.31066 12.3983 6.61155 12.8872L11.3933 20.6572C11.6746 21.1143 12.3254 21.1143 12.6067 20.6572L17.3885 12.8872C17.6893 12.3983 17.3462 11.7616 16.7817 11.7616H12.7171L12.7171 3.73421L12.7106 3.63459ZM11.9666 13.2293C11.9777 13.2298 11.9888 13.2301 12 13.2301C12.0112 13.2301 12.0223 13.2298 12.0334 13.2293H15.4811L11.9997 18.8876L8.5174 13.2293L11.9666 13.2293Z" fill="#200E32"/>
</svg>
