<svg width="24" height="24" viewBox="0 0 24 24" fill="none" xmlns="http://www.w3.org/2000/svg">
<path fill-rule="evenodd" clip-rule="evenodd" d="M20.7197 2.22089C21.0126 1.928 21.4874 1.928 21.7803 2.22089C22.0466 2.48716 22.0708 2.90382 21.853 3.19743L21.7803 3.28155L12.3345 12.7274C13.053 13.3279 13.8865 13.8237 14.8192 14.2081C15.0107 14.2786 15.1627 14.2498 15.5274 14.0508L15.7279 13.9374C16.5157 13.4844 16.9649 13.3317 17.6439 13.4748C18.2636 13.596 20.5248 15.2985 21.2905 16.092C21.6945 16.5121 21.9536 16.9651 21.9993 17.5216C22.0529 18.8933 20.3908 20.8117 19.3786 21.3801C18.2302 22.2083 16.7677 22.1961 15.1331 21.4348C13.2188 20.6427 10.7733 18.8561 8.44488 16.617L3.28034 21.7816C2.98744 22.0744 2.51257 22.0744 2.21968 21.7816C1.95341 21.5153 1.92921 21.0986 2.14706 20.805L2.21968 20.7209L10.7034 12.2372C10.7088 12.2314 10.7143 12.2258 10.7199 12.2202C10.7253 12.2148 10.7307 12.2095 10.7362 12.2043L20.7197 2.22089ZM11.2703 13.7916L9.5058 15.5561C11.705 17.6669 13.9998 19.3426 15.7363 20.0618C16.8745 20.5914 17.735 20.631 18.4327 20.2097L18.5701 20.1193C19.2133 19.7549 20.5262 18.2395 20.5025 17.6133C20.4926 17.4943 20.3966 17.3265 20.2102 17.1326C19.6525 16.5548 17.5736 14.9895 17.3454 14.9447C17.1554 14.9047 16.9942 14.9491 16.6117 15.1608L16.4027 15.2796C15.5882 15.7462 15.0496 15.8915 14.2744 15.6054C13.1375 15.1374 12.1329 14.5322 11.2703 13.7916ZM6.51513 2.0037C7.03692 2.04876 7.48929 2.3069 7.91277 2.71255C8.24109 3.03098 8.8374 3.74904 9.37993 4.47134L9.66328 4.85454C10.1891 5.57671 10.4703 6.03934 10.5235 6.34641C10.6565 6.97828 10.5396 7.4082 10.1706 8.08237L10.0239 8.34211C9.75913 8.80484 9.71478 8.96915 9.78362 9.15759C9.87489 9.38035 9.96547 9.58284 10.0587 9.77103C10.2425 10.1422 10.0907 10.5921 9.7195 10.776C9.34833 10.9598 8.89839 10.808 8.71454 10.4368C8.60464 10.215 8.49971 9.98038 8.38578 9.701C8.13105 9.00899 8.23524 8.49714 8.61996 7.78076L8.763 7.5256C9.04058 7.04227 9.10017 6.86668 9.05079 6.62997L9.02943 6.59039C8.94913 6.4566 8.65123 6.00912 8.27542 5.49981L8.17993 5.37134C7.6815 4.70776 7.12709 4.04016 6.87181 3.79254C6.67593 3.60491 6.50714 3.50859 6.41411 3.50003C5.82367 3.47127 4.46628 4.59365 3.91783 5.37836L3.83418 5.50576C3.39606 6.10253 3.38382 6.9361 3.86674 8.086L3.96311 8.30533C4.48104 9.56304 5.49806 11.1126 6.86199 12.7438C7.12768 13.0616 7.08546 13.5346 6.76769 13.8003C6.44992 14.066 5.97692 14.0238 5.71123 13.706C4.35423 12.083 3.30872 10.5197 2.70943 9.18585L2.58789 8.90359C1.81468 7.21776 1.7899 5.75564 2.58838 4.67292C3.28852 3.51881 5.1553 1.93692 6.51513 2.0037Z" fill="#200E32"/>
</svg>
