<svg width="24" height="24" viewBox="0 0 24 24" fill="none" xmlns="http://www.w3.org/2000/svg">
<path fill-rule="evenodd" clip-rule="evenodd" d="M6.47044 2.00173L6.49706 2.00344C7.02095 2.04687 7.47597 2.30722 7.89133 2.71305C8.68068 3.48398 10.3757 5.73367 10.5036 6.3459C10.6453 7.02891 10.4938 7.47252 10.0424 8.25724L9.93299 8.45064C9.72584 8.82898 9.69417 8.98521 9.75831 9.16409C10.7439 11.5763 12.4259 13.258 14.8106 14.232C15.0364 14.3138 15.2069 14.2669 15.6842 13.9931L15.9332 13.8522C16.6042 13.4842 17.0294 13.3679 17.6565 13.4985C18.2666 13.6264 20.5176 15.3224 21.2873 16.1108C21.6926 16.5257 21.9535 16.9816 21.999 17.5399C22.0469 18.8972 20.3908 20.8082 19.3805 21.3828C18.2317 22.2046 16.7737 22.191 15.139 21.4301C10.8641 19.6513 4.325 13.1539 2.58238 8.88432L2.47807 8.64549C1.81637 7.06399 1.83071 5.69766 2.58898 4.66758C3.28088 3.52176 5.14635 1.94049 6.47044 2.00173ZM6.38962 3.46397L6.30146 3.46849C5.62187 3.55878 4.25903 4.73207 3.80517 5.47834L3.72676 5.59502C3.33578 6.23205 3.3811 7.10687 3.92544 8.3047L4.02947 8.54822C5.785 12.4882 11.8633 18.4822 15.7284 20.0911L15.9412 20.1858C17.0595 20.6598 17.906 20.6388 18.5913 20.1528L18.642 20.1202C18.8541 19.9729 19.3431 19.5285 19.7198 19.0938C20.2489 18.4833 20.5486 17.9239 20.5389 17.6262C20.5283 17.4988 20.4301 17.3271 20.2407 17.1332C19.6685 16.5472 17.5874 14.9791 17.3574 14.9309C17.1399 14.8856 16.9614 14.9465 16.4732 15.2273L16.2276 15.3652C15.5084 15.7531 15.0014 15.8573 14.2851 15.5973C11.5091 14.4643 9.53832 12.4938 8.39328 9.68981C8.12206 8.9401 8.26806 8.40968 8.73971 7.58764L8.85209 7.38993C9.06635 7.00305 9.11169 6.83891 9.07132 6.6442C9.02298 6.41294 7.4559 4.33301 6.86908 3.75988C6.67476 3.57003 6.50402 3.47233 6.37624 3.46174L6.38962 3.46397Z" fill="#200E32"/>
</svg>
