<svg width="24" height="24" viewBox="0 0 24 24" fill="none" xmlns="http://www.w3.org/2000/svg">
<path fill-rule="evenodd" clip-rule="evenodd" d="M6.47049 2.00173L6.49912 2.00361C7.02208 2.0484 7.4774 2.30856 7.89182 2.71347C8.6825 3.48701 10.3758 5.73399 10.5037 6.34582C10.6453 7.02882 10.4939 7.47242 10.0424 8.25714L9.93303 8.45053C9.72588 8.82886 9.69422 8.98507 9.75835 9.16394C10.744 11.5761 12.4259 13.2578 14.8111 14.2319C15.0369 14.3139 15.2074 14.2671 15.6842 13.9936L15.9339 13.8523C16.6043 13.4846 17.0294 13.3682 17.6565 13.4983C18.2666 13.6261 20.5176 15.3221 21.2873 16.1105C21.6926 16.5254 21.9535 16.9812 21.999 17.5396C22.0469 18.8968 20.3908 20.8078 19.381 21.3821C18.2324 22.2049 16.7746 22.191 15.139 21.4297C10.8641 19.6509 4.32507 13.1537 2.58246 8.8842L2.47813 8.64536C1.8164 7.06381 1.83072 5.69748 2.58873 4.66907C3.27933 3.52318 5.14607 1.94047 6.47049 2.00173ZM6.3887 3.46397L6.3015 3.4685C5.62172 3.55885 4.25837 4.73287 3.80501 5.47961C3.33218 6.12412 3.34719 7.032 3.92551 8.30457L4.02954 8.54808C5.78505 12.488 11.8633 18.4818 15.7284 20.0908L15.9414 20.1855C17.0602 20.6598 17.9063 20.6389 18.5914 20.1524C18.7643 20.0533 19.3089 19.5677 19.7198 19.0935C20.2489 18.483 20.5486 17.9236 20.5389 17.6259C20.5284 17.4985 20.4301 17.3268 20.2407 17.1329C19.6685 16.5469 17.5874 14.9788 17.358 14.9308C17.1406 14.8857 16.9619 14.9466 16.474 15.2273L16.2277 15.3657C15.5086 15.7534 15.0011 15.8575 14.2851 15.5971C11.5092 14.464 9.53837 12.4936 8.39333 9.68967C8.12211 8.93997 8.26811 8.40955 8.73977 7.58752L8.85214 7.38981C9.0664 7.00295 9.11174 6.83882 9.07137 6.64413C9.02311 6.41327 7.45685 4.33485 6.86914 3.75988C6.67545 3.57064 6.50401 3.47268 6.37429 3.46157L6.3887 3.46397ZM20.5072 2.45807C20.7929 2.17235 21.256 2.17235 21.5417 2.45807C21.8014 2.71782 21.825 3.12429 21.6125 3.41072L21.5417 3.49278L19.1329 5.90201L21.5417 8.31125C21.8274 8.59697 21.8274 9.06023 21.5417 9.34595C21.282 9.6057 20.8756 9.62932 20.5892 9.41679L20.5072 9.34595L18.0984 6.93672L15.6896 9.34595C15.4039 9.63168 14.9408 9.63168 14.6551 9.34595C14.3954 9.0862 14.3718 8.67973 14.5843 8.39331L14.6551 8.31125L17.0639 5.90201L14.6551 3.49278C14.3694 3.20705 14.3694 2.7438 14.6551 2.45807C14.9148 2.19832 15.3212 2.17471 15.6076 2.38723L15.6896 2.45807L18.0984 4.86731L20.5072 2.45807Z" fill="#200E32"/>
</svg>
