<svg width="24" height="24" viewBox="0 0 24 24" fill="none" xmlns="http://www.w3.org/2000/svg">
<path fill-rule="evenodd" clip-rule="evenodd" d="M9.64676 3H14.3532C15.3399 3.00688 16.1172 3.51953 16.568 4.40741C16.6327 4.53408 16.7098 4.68984 16.8026 4.88122L17.4459 6.23377C17.4812 6.30828 17.5557 6.35544 17.6576 6.3557L17.869 6.36147C20.1799 6.48224 22 8.39225 22 10.7128V16.6426C22 19.0486 20.0469 21 17.638 21H6.363C3.95329 21 2 19.0488 2 16.6426V10.7128C2 8.30599 3.95297 6.35544 6.31516 6.35697L6.39001 6.35373C6.46133 6.34457 6.52408 6.2992 6.55477 6.23442L7.04599 5.19771L7.43153 4.40842C7.88453 3.51894 8.66055 3.00688 9.64676 3ZM14.348 4.4984L9.65724 4.49838C9.24994 4.50122 8.97475 4.68281 8.76859 5.08761C8.70839 5.20593 8.63472 5.35533 8.54482 5.54115L7.91093 6.8747C7.66082 7.40266 7.15855 7.76583 6.53341 7.84451L6.363 7.85386C4.78134 7.85386 3.5 9.1336 3.5 10.7128V16.6426C3.5 18.2212 4.78171 19.5016 6.363 19.5016H17.638C19.2184 19.5016 20.5 18.2211 20.5 16.6426V10.7128C20.5 9.19038 19.3056 7.93702 17.8103 7.85861L17.4863 7.84717C16.8846 7.7939 16.3514 7.42641 16.0898 6.87405L15.3912 5.40843L15.2311 5.08701C15.026 4.68303 14.7504 4.50123 14.348 4.4984ZM8.07162 13.3288C8.05419 11.1775 9.83314 9.39237 12.0045 9.39483L12.2064 9.40019C14.2798 9.50809 15.9322 11.2313 15.9286 13.331C15.9249 15.4909 14.163 17.2521 12.002 17.2545C9.83726 17.2558 8.07036 15.4873 8.07162 13.3288ZM14.4286 13.3284C14.4309 11.9884 13.3406 10.8948 12.0027 10.8933L11.8433 10.8983C10.578 10.9807 9.56132 12.0521 9.5716 13.3231C9.57084 14.6606 10.6662 15.7569 12.0007 15.7561C13.3341 15.7546 14.4263 14.6629 14.4286 13.3284ZM16.6038 10.9077C16.7107 10.9507 16.8061 10.9758 16.9027 10.9857L17.0002 10.9907L17.0994 10.9858C17.3291 10.963 17.5444 10.8616 17.7083 10.6967C17.898 10.4955 18.0002 10.2537 18.0002 9.99219C18.0002 9.85607 17.9723 9.72115 17.9171 9.59707L17.8944 9.5387C17.8559 9.45638 17.7867 9.35876 17.7045 9.27787C17.4303 9.00405 16.9915 8.9168 16.6226 9.06282C16.4982 9.11756 16.4072 9.17975 16.3184 9.25704C16.2016 9.37065 16.137 9.47511 16.0825 9.59893C16.0281 9.72115 16.0002 9.85607 16.0002 9.99219C16.0002 10.2485 16.1037 10.4969 16.2825 10.6868C16.382 10.7878 16.4849 10.8549 16.6038 10.9077Z" fill="#200E32"/>
</svg>
