<svg width="24" height="24" viewBox="0 0 24 24" fill="none" xmlns="http://www.w3.org/2000/svg">
<path fill-rule="evenodd" clip-rule="evenodd" d="M16.3345 2.00018H7.66549C4.26791 2.00018 2.00049 4.43278 2.00049 7.91618V16.0842C2.00049 19.5709 4.26186 22.0002 7.66549 22.0002H16.3335C19.7381 22.0002 22.0005 19.5709 22.0005 16.0842V7.91618C22.0005 4.42969 19.7383 2.00018 16.3345 2.00018ZM7.66549 3.50018H16.3345C18.885 3.50018 20.5005 5.23515 20.5005 7.91618V16.0842C20.5005 18.7653 18.8849 20.5002 16.3335 20.5002H7.66549C5.11525 20.5002 3.50049 18.7655 3.50049 16.0842V7.91618C3.50049 5.23856 5.12083 3.50018 7.66549 3.50018ZM9.07071 9.0624C9.33701 8.79616 9.75367 8.772 10.0473 8.98988L10.1314 9.06251L11.9991 10.9306L13.8652 9.06455C14.1581 8.77166 14.6329 8.77166 14.9258 9.06455C15.1921 9.33082 15.2163 9.74748 14.9984 10.0411L14.9258 10.1252L13.0596 11.9914L14.9274 13.8595C15.2202 14.1524 15.2202 14.6273 14.9273 14.9202C14.661 15.1864 14.2443 15.2106 13.9507 14.9927L13.8666 14.9201L11.999 13.052L10.1338 14.9172C9.84093 15.2101 9.36605 15.2101 9.07316 14.9172C8.80689 14.6509 8.78269 14.2343 9.00054 13.9407L9.07316 13.8566L10.9384 11.9913L9.0706 10.1231C8.77774 9.83013 8.77779 9.35526 9.07071 9.0624Z" fill="#200E32"/>
</svg>
