<svg width="24" height="24" viewBox="0 0 24 24" fill="none" xmlns="http://www.w3.org/2000/svg">
<path fill-rule="evenodd" clip-rule="evenodd" d="M15.9391 3.39039C15.6523 2.54628 14.9075 2 14.0639 2H9.93592L9.779 2.00633C8.9492 2.07349 8.24111 2.66897 8.02304 3.50533L7.77543 4.76813L7.74642 4.87929C7.62785 5.23928 7.29636 5.48913 6.91772 5.48913H3.73139L3.63214 5.49598C3.27515 5.54564 3 5.85945 3 6.23916C3 6.65338 3.32745 6.98918 3.73139 6.98918L6.91772 6.98918H17.0821L20.2686 6.98918L20.3679 6.98234C20.7248 6.93267 21 6.61887 21 6.23916C21 5.82493 20.6725 5.48913 20.2686 5.48913H17.0821L16.9701 5.48177C16.6025 5.4332 16.2987 5.14872 16.2243 4.76783L15.9874 3.55209L15.9391 3.39039ZM14.9143 5.48913C14.881 5.40445 14.8522 5.31721 14.8282 5.22768L14.79 5.06208L14.5636 3.8928C14.5107 3.68991 14.3473 3.54138 14.1502 3.50742L14.0639 3.50006H9.93592C9.73071 3.50006 9.54829 3.62322 9.47252 3.77803L9.44682 3.84604L9.20979 5.06238C9.18087 5.21048 9.13899 5.35311 9.08551 5.48913H14.9143ZM18.9784 8.72017C19.3475 8.75069 19.6304 9.05716 19.65 9.42605L19.6405 9.63174L19.326 13.483L18.9961 17.2414C18.9263 17.9917 18.8638 18.6245 18.8099 19.1227C18.6225 20.8588 17.4955 21.9323 15.7966 21.9641C13.1494 22.013 10.6048 22.0125 8.13373 21.9591C6.48398 21.9244 5.37366 20.8393 5.18955 19.1297L5.0623 17.8702L4.83994 15.427L4.61216 12.7461L4.35172 9.52788C4.31935 9.11498 4.61951 8.75335 5.02215 8.72016C5.39123 8.68973 5.7183 8.94584 5.79519 9.30677L5.82511 9.60173L6.06966 12.6187L6.33669 15.7459C6.45646 17.0996 6.56034 18.1952 6.64346 18.9648C6.74838 19.939 7.26138 20.4404 8.16411 20.4593C10.6159 20.5124 13.1415 20.5129 15.7701 20.4643C16.7277 20.4464 17.2489 19.9499 17.356 18.9574L17.4827 17.7046C17.5198 17.3185 17.5594 16.8923 17.6014 16.4293L17.8686 13.3538L18.1906 9.4075C18.2204 9.02902 18.5192 8.7389 18.879 8.71882L18.9784 8.72017Z" fill="#200E32"/>
</svg>
