<svg width="24" height="24" viewBox="0 0 24 24" fill="none" xmlns="http://www.w3.org/2000/svg">
<path fill-rule="evenodd" clip-rule="evenodd" d="M9.86476 2.88765C10.9911 1.75618 12.7936 1.70636 13.9513 2.71645L14.1336 2.88645L14.8524 3.6052C15.0992 3.85092 15.4231 4.00242 15.7676 4.03645L15.9163 4.04378H16.9443C18.5481 4.04378 19.8595 5.29795 19.9512 6.87883L19.9563 7.05578V8.08278C19.9563 8.43258 20.0769 8.76886 20.2945 9.03624L20.3936 9.14645L21.1124 9.86525C22.2439 10.9917 22.2945 12.7929 21.2579 13.98L21.1226 14.1251L20.3942 14.8535C20.1493 15.099 19.9977 15.4231 19.9636 15.7672L19.9563 15.9158V16.9448C19.9563 18.5485 18.7022 19.8591 17.1212 19.9507L16.9443 19.9558H15.9163C15.5677 19.9558 15.231 20.0769 14.9635 20.2951L14.8532 20.3945L14.1354 21.1113C13.0102 22.2442 11.2076 22.2944 10.0201 21.2574L9.86596 21.1131L9.14884 20.396C8.90045 20.1494 8.57601 19.9973 8.23251 19.9631L8.08429 19.9558H7.05529C5.45216 19.9558 4.14101 18.7023 4.0494 17.1217L4.04429 16.9448V15.9158C4.04429 15.5678 3.92299 15.2308 3.70491 14.9637L3.60559 14.8537L2.88846 14.1356C1.75589 13.0094 1.70565 11.2068 2.74267 10.0204L2.87796 9.87545L3.60408 9.14834C3.85103 8.89963 4.00285 8.57581 4.03695 8.23146L4.04429 8.08278V7.05578L4.0494 6.87885C4.13762 5.35668 5.35679 4.13715 6.87842 4.0489L7.05529 4.04378H8.08429C8.43277 4.04378 8.76954 3.9229 9.03658 3.70572L9.14659 3.60682L9.86476 2.88765ZM13.105 3.97734L13.0652 3.94031C12.5109 3.38855 11.635 3.35624 11.0417 3.84256L10.927 3.94674L10.2057 4.66899C9.68849 5.18258 9.00436 5.48966 8.28211 5.53727L8.08429 5.54378H7.05529C6.26772 5.54378 5.62001 6.14793 5.55047 6.91821L5.54429 7.05578V8.08278C5.54429 8.81195 5.27968 9.5131 4.80239 10.0612L4.66699 10.2067L3.93982 10.9349C3.388 11.4892 3.35588 12.3649 3.84353 12.9589L3.94799 13.0738L4.66725 13.7941C5.18165 14.3097 5.48994 14.995 5.53775 15.7178L5.54429 15.9158V16.9448C5.54429 17.7328 6.14799 18.3801 6.9178 18.4496L7.05529 18.4558H8.08429C8.81208 18.4558 9.51383 18.7207 10.062 19.198L10.2076 19.3335L10.9309 20.0568C11.4891 20.6119 12.3651 20.6442 12.9586 20.1565L13.0733 20.0521L13.7942 19.3322C14.3109 18.8179 14.9954 18.5101 15.7183 18.4623L15.9163 18.4558H16.9443C17.733 18.4558 18.3806 17.8524 18.4501 17.0823L18.4563 16.9448V15.9158C18.4563 15.1869 18.7211 14.4839 19.1977 13.9383L19.333 13.7935L20.0605 13.066C20.6123 12.511 20.6442 11.6358 20.1573 11.0419L20.053 10.9271L19.3311 10.2052C18.8172 9.68765 18.5104 9.00422 18.4628 8.28094L18.4563 8.08278V7.05578C18.4563 6.26737 17.8522 5.61951 17.0819 5.54996L16.9443 5.54378H15.9163C15.1871 5.54378 14.4851 5.27939 13.9382 4.80243L13.793 4.66711L13.105 3.97734ZM14.0367 15.1024C14.1767 15.2424 14.3667 15.3224 14.5667 15.3224C14.7667 15.3224 14.9567 15.2424 15.0967 15.1024C15.1667 15.0324 15.2267 14.9424 15.2667 14.8524C15.2967 14.7624 15.3167 14.6734 15.3167 14.5724C15.3167 14.4724 15.2967 14.3724 15.2667 14.2824C15.2267 14.1924 15.1667 14.1124 15.0967 14.0424C14.8167 13.7624 14.3167 13.7624 14.0367 14.0424C13.9667 14.1124 13.9167 14.1924 13.8767 14.2824C13.8367 14.3724 13.8167 14.4724 13.8167 14.5724C13.8167 14.6734 13.8367 14.7624 13.8767 14.8524C13.9167 14.9424 13.9667 15.0324 14.0367 15.1024ZM9.42659 10.1828C9.32659 10.1828 9.23659 10.1618 9.14659 10.1218C9.05659 10.0818 8.96659 10.0328 8.89659 9.96278C8.82659 9.88278 8.77659 9.80278 8.73659 9.71278C8.69659 9.62178 8.67659 9.53278 8.67659 9.43278C8.67659 9.33178 8.69659 9.23278 8.73659 9.14278C8.77659 9.05278 8.82659 8.96278 8.89659 8.90278C9.18659 8.62178 9.67659 8.62178 9.95659 8.90278C10.0966 9.04178 10.1766 9.23278 10.1766 9.43278C10.1766 9.53278 10.1666 9.62178 10.1266 9.71278C10.0866 9.80278 10.0266 9.88278 9.95659 9.96278C9.88659 10.0328 9.80659 10.0818 9.71659 10.1218C9.62659 10.1618 9.52659 10.1828 9.42659 10.1828ZM15.1003 8.89915C14.8074 8.60626 14.3326 8.60626 14.0397 8.89915L8.89966 14.0392L8.82704 14.1233C8.60918 14.4169 8.63339 14.8335 8.89966 15.0998C9.19255 15.3927 9.66742 15.3927 9.96032 15.0998L15.1003 9.95981L15.1729 9.87569C15.3908 9.58208 15.3666 9.16542 15.1003 8.89915Z" fill="#200E32"/>
</svg>
