<svg width="24" height="24" viewBox="0 0 24 24" fill="none" xmlns="http://www.w3.org/2000/svg">
<path fill-rule="evenodd" clip-rule="evenodd" d="M11.3722 3.39508V13.6192L9.73763 11.9791L9.65366 11.9064C9.36049 11.6879 8.94378 11.7112 8.67697 11.977C8.38347 12.2693 8.3825 12.7441 8.67479 13.0376L11.5908 15.9656L11.593 15.9676C11.6177 15.9921 11.644 16.015 11.6719 16.0359L11.675 16.0386C11.9691 16.2575 12.3871 16.2332 12.6536 15.9656L15.5696 13.0376L15.6421 12.9534C15.8593 12.6593 15.8343 12.2427 15.5674 11.977L15.4832 11.9045C15.1891 11.6873 14.7725 11.7123 14.5068 11.9791L12.8722 13.6198V3.39508L12.8654 3.29331C12.8157 2.92723 12.5019 2.64508 12.1222 2.64508C11.708 2.64508 11.3722 2.98087 11.3722 3.39508ZM17.9053 21.1172C20.2528 21.0084 22.122 19.0714 22.122 16.697V11.813L22.1172 11.6042C22.0082 9.25115 20.0674 7.37798 17.688 7.37798H16.755L16.6532 7.38483C16.2872 7.43449 16.005 7.74828 16.005 8.12798C16.005 8.54219 16.3408 8.87798 16.755 8.87798H17.688L17.8605 8.88296C19.401 8.97218 20.622 10.2492 20.622 11.813V16.697L20.617 16.8689C20.5281 18.4046 19.2551 19.622 17.697 19.622H6.55701L6.38457 19.617C4.84403 19.5277 3.62201 18.2499 3.62201 16.687V11.802L3.62698 11.6302C3.71597 10.0956 4.98965 8.87798 6.54701 8.87798H7.48901L7.59078 8.87113C7.95686 8.82147 8.23901 8.50768 8.23901 8.12798C8.23901 7.71377 7.90322 7.37798 7.48901 7.37798H6.54701L6.33266 7.38308C3.98881 7.4949 2.12201 9.43075 2.12201 11.802V16.687L2.12684 16.8957C2.23586 19.248 4.17777 21.122 6.55701 21.122H17.697L17.9053 21.1172Z" fill="#200E32"/>
</svg>
