<svg width="24" height="24" viewBox="0 0 24 24" fill="none" xmlns="http://www.w3.org/2000/svg">
<path fill-rule="evenodd" clip-rule="evenodd" d="M3.27213 1H20.7279C21.9885 1 23 2.04352 23 3.32018V5.02151C23 5.6415 22.7586 6.23568 22.3281 6.66977L14.8846 14.2168L14.8852 19.9314C14.8852 20.1915 14.7538 20.4311 14.5407 20.5718L14.4446 20.6257L9.55719 22.926C9.04819 23.1656 8.46293 22.7942 8.46293 22.2317L8.4626 14.1994L1.60591 6.63882C1.25898 6.25706 1.05007 5.76916 1.00793 5.25451L1 5.06041V3.32018C1 2.04352 2.0115 1 3.27213 1ZM20.7279 2.53482H3.27213C2.87009 2.53482 2.53488 2.88064 2.53488 3.32018V5.06041C2.53488 5.26575 2.60958 5.46108 2.74234 5.60717L9.79884 13.3875C9.92689 13.5287 9.99781 13.7125 9.99781 13.9031L9.99749 21.0212L13.3497 19.4444L13.3503 13.9031C13.3503 13.7417 13.4011 13.5856 13.4939 13.4561L13.5713 13.3643L21.2367 5.59057C21.3818 5.44424 21.4651 5.23924 21.4651 5.02151V3.32018C21.4651 2.88064 21.1299 2.53482 20.7279 2.53482Z" fill="#200E32"/>
</svg>
