<svg width="24" height="24" viewBox="0 0 24 24" fill="none" xmlns="http://www.w3.org/2000/svg">
<path fill-rule="evenodd" clip-rule="evenodd" d="M16.4335 20.5727C18.7825 20.5227 20.6555 18.5657 20.6035 16.2117V11.8697C20.6055 11.7647 20.6045 11.6717 20.6005 11.5787C20.4995 9.24069 18.6105 7.4967 16.1955 7.4967C16.1844 7.4967 16.1741 7.49713 16.1631 7.49759C16.1504 7.49812 16.1367 7.4987 16.1195 7.4987H7.88251C7.75651 7.4937 7.66551 7.4927 7.57451 7.4947C6.43151 7.5197 5.36951 7.9857 4.58151 8.8107C3.79151 9.6337 3.37151 10.7147 3.39651 11.8557V16.1957C3.39451 16.3037 3.39551 16.3977 3.39951 16.4897C3.50251 18.8427 5.48051 20.6827 7.85051 20.5697C10.5695 20.6157 13.3325 20.6157 16.1065 20.5687C16.2425 20.5747 16.3385 20.5757 16.4335 20.5727ZM16.1145 6.1037C19.2975 6.0777 21.8605 8.4407 21.9945 11.5177C21.9995 11.6387 22.0005 11.7627 21.9985 11.8857V16.1957C22.0665 19.3037 19.5825 21.8997 16.4605 21.9687C16.3325 21.9717 16.2115 21.9687 16.0895 21.9637C14.7115 21.9877 13.3255 21.9997 11.9465 21.9997C10.5755 21.9997 9.21151 21.9877 7.86951 21.9647C4.79051 22.0957 2.14251 19.6717 2.00551 16.5527C1.99951 16.4297 1.99951 16.3057 2.00151 16.1817V11.8697C1.96851 10.3727 2.52651 8.9387 3.57351 7.8457C4.61951 6.7517 6.02851 6.1317 7.54151 6.0997C7.66451 6.0957 7.79051 6.0967 7.91651 6.1047L11.8715 6.1037V5.8727C11.8625 5.1967 11.3005 4.6437 10.6165 4.6437H10.6065H9.61851H9.60051C8.53651 4.6437 7.66051 3.7767 7.64851 2.7057C7.64451 2.3197 7.95451 2.0047 8.33851 2.0007C8.68251 1.9847 9.04051 2.3057 9.04351 2.6907C9.04651 2.9987 9.29951 3.2477 9.60651 3.2477H9.61251H10.6015H10.6215C12.0615 3.2477 13.2475 4.4167 13.2665 5.8637V6.1037H16.1145ZM9.07981 11.5853C9.45253 11.5853 9.76056 11.8577 9.80931 12.211L9.81603 12.3092V13.3257H10.8499C11.2565 13.3257 11.5861 13.6498 11.5861 14.0496C11.5861 14.416 11.3092 14.7189 10.9498 14.7668L10.8499 14.7734H9.81603V15.79C9.81603 16.1897 9.48641 16.5138 9.07981 16.5138C8.70708 16.5138 8.39905 16.2415 8.3503 15.8882L8.34358 15.79V14.7734H7.30972C6.90311 14.7734 6.57349 14.4494 6.57349 14.0496C6.57349 13.6831 6.85046 13.3802 7.20981 13.3323L7.30972 13.3257H8.34358V12.3092C8.34358 11.9094 8.6732 11.5853 9.07981 11.5853ZM15.8541 12.4152C15.8541 12.0154 15.5245 11.6913 15.1179 11.6913H15.019L14.9191 11.698C14.5598 11.7459 14.2828 12.0487 14.2828 12.4152C14.2828 12.815 14.6124 13.1391 15.019 13.1391H15.1179L15.2178 13.1325C15.5771 13.0845 15.8541 12.7817 15.8541 12.4152ZM16.7981 15.0131C17.2047 15.0131 17.5343 15.3372 17.5343 15.737C17.5343 16.1034 17.2574 16.4063 16.898 16.4542L16.7981 16.4608H16.6993C16.2927 16.4608 15.9631 16.1367 15.9631 15.737C15.9631 15.3705 16.24 15.0676 16.5994 15.0197L16.6993 15.0131H16.7981Z" fill="#200E32"/>
</svg>
