<svg width="24" height="24" viewBox="0 0 24 24" fill="none" xmlns="http://www.w3.org/2000/svg">
<path fill-rule="evenodd" clip-rule="evenodd" d="M13.423 2.00105C13.0474 1.98661 12.6739 2.12156 12.3925 2.37643C12.1684 2.57938 12.0162 2.84619 11.957 3.13824L11.9349 3.30295L11.9299 3.44914L12.3741 9.97348C12.4295 10.8051 13.1615 11.4382 14.0133 11.39L20.6588 10.9567C21.0477 10.9286 21.4041 10.7524 21.6545 10.4668C21.8538 10.2393 21.9737 9.95621 21.9977 9.65855L22 9.4567L21.9904 9.34084C21.3029 5.20162 17.7085 2.12227 13.423 2.00105ZM13.4113 3.44902L13.6287 3.45932C17.0119 3.66443 19.8318 6.0802 20.4854 9.33352L20.5182 9.51352L13.9214 9.94502C13.888 9.94688 13.8537 9.91719 13.8511 9.87814L13.4113 3.44902ZM8.7814 5.84532C9.502 5.74681 10.211 6.12453 10.4978 6.7606C10.5855 6.93485 10.6382 7.12392 10.6533 7.32102L11.0419 12.8095C11.0471 12.8847 11.0827 12.9548 11.1409 13.0042C11.1845 13.0413 11.2381 13.0645 11.298 13.0712L11.3599 13.0724L16.9341 12.7366C17.3867 12.71 17.8305 12.8675 18.1604 13.1719C18.4902 13.4763 18.6768 13.9004 18.6744 14.3912C18.4265 18.0037 15.773 21.0237 12.159 21.8065C8.54503 22.5893 4.83611 20.9474 3.05781 17.7848C2.58229 16.9695 2.26178 16.0778 2.1138 15.1749L2.06643 14.8359C2.0253 14.5821 2.00319 14.3257 2 14.0795L2.00311 13.8372C2.0134 10.0655 4.66156 6.80403 8.38809 5.92434L8.64383 5.86807L8.7814 5.84532ZM9.01643 7.27813L8.93217 7.28772L8.70369 7.33933C5.73526 8.05478 3.6062 10.6103 3.48796 13.621L3.4828 13.8661C3.47569 14.0525 3.4825 14.2392 3.50499 14.4378L3.53277 14.6408C3.63212 15.495 3.90795 16.3206 4.34914 17.0772C5.81632 19.6863 8.86669 21.0367 11.839 20.3929C14.8113 19.7491 16.9936 17.2653 17.1958 14.3414C17.1959 14.2974 17.1774 14.2552 17.1446 14.225C17.1228 14.2049 17.0959 14.1912 17.0675 14.1851L17.024 14.1817L11.459 14.5169C10.9894 14.5503 10.5255 14.3992 10.17 14.0971C9.81456 13.7951 9.59684 13.3669 9.56522 12.91L9.17702 7.42617C9.17632 7.41708 9.17385 7.40822 9.15682 7.37299C9.1315 7.31695 9.07648 7.28131 9.01643 7.27813Z" fill="#200E32"/>
</svg>
