<svg width="24" height="24" viewBox="0 0 24 24" fill="none" xmlns="http://www.w3.org/2000/svg">
<path fill-rule="evenodd" clip-rule="evenodd" d="M6.48311 2.81529C2.81152 3.99738 1.17386 8.00569 2.40482 11.8295C3.02947 13.6301 4.04534 15.2485 5.38004 16.5762C7.21101 18.3545 9.22254 19.9194 11.3849 21.2491L11.6304 21.3961C11.8656 21.5369 12.1598 21.5344 12.3926 21.3897L12.6218 21.2473C14.7812 19.9194 16.7927 18.3545 18.6174 16.5824C19.9584 15.2485 20.9743 13.6301 21.5937 11.8452C22.8291 8.00801 21.1847 3.9978 17.512 2.81535L17.2463 2.73623C15.5624 2.27309 13.773 2.5013 12.2645 3.35535L11.9964 3.51429L11.733 3.35623C10.1419 2.45344 8.2404 2.25003 6.48311 2.81529ZM11.3746 4.85427L11.5714 4.99538C11.8307 5.18111 12.1806 5.17742 12.436 4.98625C13.766 3.99057 15.4873 3.70082 17.0641 4.20669C19.9097 5.12284 21.2047 8.28096 20.2064 11.382C19.665 12.9417 18.7687 14.3696 17.5916 15.5405L17.0636 16.0421C15.641 17.3642 14.1026 18.561 12.4691 19.6156L12.0013 19.9098L12.144 19.9998C10.0805 18.7308 8.15375 17.2319 6.40582 15.5343C5.23505 14.3696 4.33877 12.9417 3.79207 11.3664C2.79808 8.27801 4.08746 5.12212 6.93153 4.20646C8.43331 3.72339 10.0706 3.96289 11.3746 4.85427ZM15.8703 6.48374C15.4855 6.36093 15.0739 6.57304 14.951 6.95749C14.8281 7.34194 15.0404 7.75316 15.4252 7.87597C16.1814 8.11735 16.7206 8.79803 16.7881 9.60096C16.822 10.0031 17.1757 10.3017 17.5782 10.2679C17.9807 10.2341 18.2796 9.8807 18.2457 9.47853C18.1288 8.08859 17.1917 6.90551 15.8703 6.48374Z" fill="#200E32"/>
</svg>
