<svg width="24" height="24" viewBox="0 0 24 24" fill="none" xmlns="http://www.w3.org/2000/svg">
<path fill-rule="evenodd" clip-rule="evenodd" d="M20.4177 3.71619C20.1248 3.42794 19.65 3.42794 19.3571 3.71619L17.2693 5.77086C15.6565 4.6629 13.8555 4.07543 12 4.07543C9.94315 4.07543 7.94745 4.79542 6.21856 6.14201C4.51054 7.46402 3.08697 9.37061 2.06144 11.7081C1.97974 11.8943 1.97951 12.1054 2.06081 12.2918C2.94643 14.3222 4.13598 16.0255 5.55444 17.2999L3.58307 19.24L3.51045 19.3228C3.2926 19.6117 3.3168 20.0218 3.58307 20.2838C3.87596 20.5721 4.35084 20.5721 4.64373 20.2838L20.4177 4.76002L20.4903 4.67724C20.7082 4.38828 20.684 3.97823 20.4177 3.71619ZM6.61636 16.2548L8.75422 14.1508C8.32259 13.5256 8.086 12.785 8.086 12.0012C8.086 9.86842 9.83371 8.1473 12 8.1473C12.7921 8.1473 13.5527 8.38178 14.1867 8.80457L16.1892 6.83382C14.8815 5.99055 13.4565 5.55163 12 5.55163C10.2903 5.55163 8.61992 6.15424 7.14764 7.30096C5.73781 8.39217 4.52945 9.96072 3.61706 11.9004L3.5704 12.0014L3.61575 12.1003C4.40872 13.7948 5.43049 15.2038 6.61636 16.2548ZM13.0935 9.8804C12.7618 9.71412 12.3876 9.6235 12 9.6235C10.6624 9.6235 9.586 10.6835 9.586 12.0012C9.586 12.385 9.67671 12.7495 9.8468 13.0756L13.0935 9.8804ZM15.1366 11.8158L15.238 11.8269C15.6456 11.8991 15.9167 12.2828 15.8434 12.684C15.556 14.2567 14.2992 15.496 12.7022 15.7813C12.2946 15.8541 11.9042 15.588 11.8303 15.1869C11.7563 14.7858 12.0267 14.4016 12.4342 14.3288C13.4152 14.1536 14.1904 13.3892 14.367 12.4227C14.4343 12.055 14.7675 11.8002 15.1366 11.8158ZM18.997 8.31439C19.3279 8.06924 19.7981 8.13452 20.0472 8.46021C20.773 9.40914 21.4073 10.4985 21.9384 11.7072C22.0205 11.894 22.0205 12.1059 21.9386 12.2927C19.8613 17.0289 16.1345 19.9245 12 19.9245C11.0588 19.9245 10.1275 19.7747 9.23057 19.4801C8.83766 19.351 8.62544 18.9329 8.75657 18.5463C8.8877 18.1596 9.31252 17.9507 9.70543 18.0798C10.4497 18.3242 11.2207 18.4483 12 18.4483C15.3046 18.4483 18.381 16.1864 20.2727 12.3298L20.4284 12.0014L20.3755 11.8846C19.9948 11.0784 19.5645 10.339 19.0898 9.67414L18.8488 9.34799C18.5997 9.02231 18.666 8.55955 18.997 8.31439Z" fill="#200E32"/>
</svg>
