<svg width="24" height="24" viewBox="0 0 24 24" fill="none" xmlns="http://www.w3.org/2000/svg">
<path fill-rule="evenodd" clip-rule="evenodd" d="M7.66132 2H16.3287C19.7319 2 22 4.42887 22 7.91408V16.0849C22 19.5703 19.7318 22 16.3287 22H7.66132C4.25977 22 2 19.5722 2 16.0849V7.91408C2 4.43059 4.26636 2 7.66132 2ZM16.3287 3.50383H7.66132C5.12066 3.50383 3.50301 5.2387 3.50301 7.91408V16.0849C3.50301 18.7647 5.11469 20.4962 7.66132 20.4962H16.3287C18.8779 20.4962 20.497 18.7618 20.497 16.0849V7.91408C20.497 5.23744 18.8781 3.50383 16.3287 3.50383ZM13.5309 12.4589C14.4182 11.3782 16.0159 11.2689 17.0409 12.1835L17.1712 12.3086L19.2514 14.4561C19.5402 14.7543 19.5328 15.2303 19.2347 15.5193C18.9638 15.7821 18.546 15.7998 18.2552 15.5768L18.1721 15.5027L16.092 13.3553C15.7296 12.9814 15.1405 12.9779 14.7727 13.3269L14.692 13.4137L12.4589 16.1312C11.669 17.0939 10.2478 17.1971 9.32825 16.3903L9.20607 16.2747L8.31486 15.3648C8.08076 15.1217 7.70743 15.0987 7.44746 15.2949L7.36534 15.3684L5.83328 16.9855C5.54775 17.2869 5.07209 17.2996 4.77087 17.0139C4.49704 16.7542 4.46164 16.3372 4.67199 16.0372L4.74247 15.9509L6.27421 14.3341C7.0806 13.4819 8.40852 13.4365 9.26752 14.1967L9.39273 14.3167L10.2794 15.222C10.5386 15.4865 10.9541 15.4933 11.2219 15.2553L11.2976 15.1766L13.5309 12.4589ZM8.57265 6.64124C7.18772 6.64124 6.06463 7.76583 6.06463 9.15164C6.06463 10.5374 7.18772 11.662 8.57265 11.662C9.95763 11.662 11.0817 10.5374 11.0817 9.15164C11.0817 7.76589 9.95763 6.64124 8.57265 6.64124ZM8.57265 8.14507C9.12754 8.14507 9.57866 8.59643 9.57866 9.15164C9.57866 9.70684 9.12754 10.1582 8.57265 10.1582C8.01807 10.1582 7.56764 9.70716 7.56764 9.15164C7.56764 8.59611 8.01807 8.14507 8.57265 8.14507Z" fill="#200E32"/>
</svg>
