<svg width="24" height="24" viewBox="0 0 24 24" fill="none" xmlns="http://www.w3.org/2000/svg">
<path fill-rule="evenodd" clip-rule="evenodd" d="M11.8724 1.99969C14.7264 1.99969 17.0543 4.2563 17.169 7.08225L17.1734 7.30073V8.87659C18.9499 9.49324 20.2252 11.1817 20.2252 13.1685V17.4575C20.2252 19.9664 18.1917 21.9995 15.6832 21.9995H8.04218C5.53365 21.9995 3.50018 19.9664 3.50018 17.4575V13.1685C3.50018 11.1815 4.77563 9.49299 6.55239 8.87645L6.55239 7.27745C6.5652 4.34945 8.94824 1.98693 11.8724 1.99969ZM15.6734 7.30073V8.62653H8.05238V7.28073L8.05818 7.08542C8.16873 5.08019 9.83573 3.49081 11.8691 3.49968C13.9712 3.49969 15.6734 5.20193 15.6734 7.30073ZM15.6832 10.1265H8.04218C6.36202 10.1265 5.00018 11.4881 5.00018 13.1685V17.4575C5.00018 19.1379 6.36202 20.4995 8.04218 20.4995H15.6832C17.3633 20.4995 18.7252 19.1379 18.7252 17.4575V13.1685C18.7252 11.4881 17.3633 10.1265 15.6832 10.1265ZM12.606 14.1009C12.5564 13.7348 12.2426 13.4526 11.8629 13.4526C11.4487 13.4526 11.1129 13.7884 11.1129 14.2026V16.4236L11.1197 16.5254C11.1694 16.8915 11.4832 17.1736 11.8629 17.1736C12.2771 17.1736 12.6129 16.8378 12.6129 16.4236V14.2026L12.606 14.1009Z" fill="#200E32"/>
</svg>
