<svg width="24" height="24" viewBox="0 0 24 24" fill="none" xmlns="http://www.w3.org/2000/svg">
<path fill-rule="evenodd" clip-rule="evenodd" d="M16.3347 2.00018H7.66567C4.2681 2.00018 2.00067 4.43278 2.00067 7.91618V16.0842C2.00067 19.5712 4.26137 22.0002 7.66567 22.0002H16.3337C19.7383 22.0002 22.0007 19.5709 22.0007 16.0842V7.91618C22.0007 4.42969 19.7385 2.00018 16.3347 2.00018ZM7.66567 3.50018H16.3347C18.8852 3.50018 20.5007 5.23515 20.5007 7.91618V16.0842C20.5007 18.7653 18.8851 20.5002 16.3337 20.5002H7.66567C5.11481 20.5002 3.50067 18.7659 3.50067 16.0842V7.91618C3.50067 5.23856 5.12101 3.50018 7.66567 3.50018ZM6.32277 12.0004C6.32277 12.6604 6.85977 13.1974 7.52077 13.1974C8.18177 13.1974 8.71877 12.6604 8.71877 12.0004C8.71877 11.3404 8.18177 10.8024 7.52077 10.8024C6.85977 10.8024 6.32277 11.3404 6.32277 12.0004ZM12.0002 13.1974C11.3392 13.1974 10.8022 12.6604 10.8022 12.0004C10.8022 11.3404 11.3392 10.8024 12.0002 10.8024C12.6612 10.8024 13.1982 11.3404 13.1982 12.0004C13.1982 12.6604 12.6612 13.1974 12.0002 13.1974ZM15.2812 12.0004C15.2812 12.6604 15.8182 13.1974 16.4792 13.1974C17.1402 13.1974 17.6772 12.6604 17.6772 12.0004C17.6772 11.3404 17.1402 10.8024 16.4792 10.8024C15.8182 10.8024 15.2812 11.3404 15.2812 12.0004Z" fill="#200E32"/>
</svg>
