<svg width="24" height="24" viewBox="0 0 24 24" fill="none" xmlns="http://www.w3.org/2000/svg">
<path fill-rule="evenodd" clip-rule="evenodd" d="M12.0002 2.00018C6.4773 2.00018 2.00018 6.47764 2.00018 12.0002C2.00018 17.5227 6.4773 22.0002 12.0002 22.0002C17.5224 22.0002 22.0002 17.5224 22.0002 12.0002C22.0002 6.47797 17.5224 2.00018 12.0002 2.00018ZM12.0002 3.50018C16.694 3.50018 20.5002 7.3064 20.5002 12.0002C20.5002 16.694 16.694 20.5002 12.0002 20.5002C7.30575 20.5002 3.50018 16.6943 3.50018 12.0002C3.50018 7.30604 7.30575 3.50018 12.0002 3.50018ZM6.32268 12.0004C6.32268 12.6604 6.85968 13.1974 7.52068 13.1974C8.18168 13.1974 8.71868 12.6604 8.71868 12.0004C8.71868 11.3404 8.18168 10.8024 7.52068 10.8024C6.85968 10.8024 6.32268 11.3404 6.32268 12.0004ZM12.0002 13.1974C11.3392 13.1974 10.8022 12.6604 10.8022 12.0004C10.8022 11.3404 11.3392 10.8024 12.0002 10.8024C12.6612 10.8024 13.1982 11.3404 13.1982 12.0004C13.1982 12.6604 12.6612 13.1974 12.0002 13.1974ZM15.2812 12.0004C15.2812 12.6604 15.8182 13.1974 16.4792 13.1974C17.1402 13.1974 17.6772 12.6604 17.6772 12.0004C17.6772 11.3404 17.1402 10.8024 16.4792 10.8024C15.8182 10.8024 15.2812 11.3404 15.2812 12.0004Z" fill="#200E32"/>
</svg>
