<svg width="24" height="24" viewBox="0 0 24 24" fill="none" xmlns="http://www.w3.org/2000/svg">
<path fill-rule="evenodd" clip-rule="evenodd" d="M14.6064 2.01188C14.5633 2.0042 14.519 2.00018 14.4737 2.00018C14.4285 2.00018 14.3841 2.0042 14.341 2.01188H8.08443C5.59713 2.01188 3.50043 4.02971 3.50043 6.49088V17.2279C3.50043 19.8254 5.50127 21.8649 8.08443 21.8649H16.0724C18.5281 21.8649 20.5524 19.7229 20.5524 17.2279V8.03788C20.5524 7.84424 20.4775 7.65811 20.3434 7.51843L15.2774 2.24243C15.136 2.09514 14.9406 2.01188 14.7364 2.01188H14.6064ZM13.7237 3.51108L8.08443 3.51188C6.41296 3.51188 5.00043 4.87128 5.00043 6.49088V17.2279C5.00043 19.0033 6.33618 20.3649 8.08443 20.3649H16.0724C17.6801 20.3649 19.0524 18.9128 19.0524 17.2279L19.0521 8.98327L18.1756 8.98625C17.8421 8.98585 17.4628 8.98514 17.0411 8.98418C15.2708 8.98044 13.8265 7.59366 13.729 5.84759L13.7237 5.65918V3.51108ZM18.2311 7.48402L17.0444 7.48419C16.0381 7.48206 15.2237 6.66575 15.2237 5.65918V4.35213L18.2311 7.48402ZM11.6407 8.69078C12.0204 8.69078 12.3342 8.97294 12.3839 9.33901L12.3907 9.44078V14.1966L13.9479 12.634C14.2402 12.3405 14.715 12.3395 15.0085 12.6317C15.2754 12.8974 15.3005 13.3141 15.0832 13.6081L15.0108 13.6924L12.173 16.5422L12.1718 16.5434C12.1717 16.5435 12.1715 16.5436 12.1714 16.5438C11.9049 16.8111 11.4869 16.8352 11.193 16.6163L11.1862 16.6104C11.1612 16.5913 11.1375 16.5708 11.1151 16.5488L11.1088 16.5433L8.27079 13.6923C7.97856 13.3987 7.97965 12.9239 8.27321 12.6316C8.54008 12.366 8.9568 12.3427 9.24992 12.5613L9.33387 12.6341L10.8907 14.1989V9.44078C10.8907 9.02657 11.2265 8.69078 11.6407 8.69078Z" fill="#200E32"/>
</svg>
