<svg width="24" height="24" viewBox="0 0 24 24" fill="none" xmlns="http://www.w3.org/2000/svg">
<path fill-rule="evenodd" clip-rule="evenodd" d="M14.6067 2.01188C14.5636 2.0042 14.5193 2.00018 14.474 2.00018C14.4287 2.00018 14.3844 2.0042 14.3413 2.01188H8.08369C5.5964 2.01188 3.49969 4.02971 3.49969 6.49088V17.2039C3.49969 19.8045 5.50429 21.8649 8.08369 21.8649H16.0727C18.526 21.8649 20.5517 19.703 20.5517 17.2039V8.03788C20.5517 7.84427 20.4768 7.65815 20.3427 7.51848L15.2777 2.24248C15.1363 2.09516 14.9409 2.01188 14.7367 2.01188H14.6067ZM13.724 3.51108L8.08369 3.51188C6.41223 3.51188 4.99969 4.87128 4.99969 6.49088V17.2039C4.99969 18.9851 6.34208 20.3649 8.08369 20.3649H16.0727C17.675 20.3649 19.0517 18.8956 19.0517 17.2039L19.051 8.98327L18.1755 8.98625C17.8419 8.98585 17.4624 8.98514 17.0404 8.98418C15.2709 8.98044 13.8267 7.59347 13.7292 5.84757L13.724 5.65918V3.51108ZM18.2302 7.48402L17.0437 7.48419C16.0382 7.48206 15.224 6.66564 15.224 5.65918V4.35263L18.2302 7.48402ZM14.284 14.8078C14.6982 14.8078 15.034 15.1436 15.034 15.5578C15.034 15.9375 14.7518 16.2513 14.3858 16.3009L14.284 16.3078H8.88699C8.47278 16.3078 8.13699 15.972 8.13699 15.5578C8.13699 15.1781 8.41915 14.8643 8.78522 14.8146L8.88699 14.8078H14.284ZM12.9925 10.6056C12.9925 10.1914 12.6567 9.85558 12.2425 9.85558H8.88649L8.78472 9.86243C8.41865 9.91209 8.13649 10.2259 8.13649 10.6056C8.13649 11.0198 8.47228 11.3556 8.88649 11.3556H12.2425L12.3443 11.3487C12.7103 11.2991 12.9925 10.9853 12.9925 10.6056Z" fill="#200E32"/>
</svg>
