<svg width="24" height="24" viewBox="0 0 24 24" fill="none" xmlns="http://www.w3.org/2000/svg">
<path fill-rule="evenodd" clip-rule="evenodd" d="M14.6066 2.01188C14.5635 2.0042 14.5191 2.00018 14.4739 2.00018C14.4286 2.00018 14.3843 2.0042 14.3412 2.01188H7.97857C5.50504 2.01188 3.49957 4.01698 3.49957 6.49088V17.3399C3.49957 19.9089 5.57562 21.8649 8.18957 21.8649H16.0726C18.541 21.8649 20.5516 19.8201 20.5516 17.3399V8.03788C20.5516 7.84427 20.4767 7.65815 20.3426 7.51848L15.2776 2.24248C15.1362 2.09516 14.9408 2.01188 14.7366 2.01188H14.6066ZM13.7239 3.51108L7.97857 3.51188C6.33341 3.51188 4.99957 4.84547 4.99957 6.49088V17.3399C4.99957 19.0599 6.38472 20.3649 8.18957 20.3649H16.0726C17.7069 20.3649 19.0516 18.9973 19.0516 17.3399L19.051 8.98327L18.1754 8.98625C17.8418 8.98585 17.4623 8.98514 17.0403 8.98418C15.2708 8.98044 13.8266 7.59347 13.7291 5.84757L13.7239 5.65918V3.51108ZM18.2302 7.48402L17.0436 7.48419C16.0381 7.48206 15.2239 6.66564 15.2239 5.65918V4.35252L18.2302 7.48402ZM9.58004 10.6513C9.84631 10.385 10.263 10.3608 10.5566 10.5786L10.6407 10.6513L11.8435 11.854L13.0462 10.6513C13.3391 10.3584 13.814 10.3584 14.1069 10.6513C14.3732 10.9175 14.3974 11.3342 14.1795 11.6278L14.1069 11.7119L12.9041 12.9147L14.1067 14.1173C14.3996 14.4101 14.3996 14.885 14.1067 15.1779C13.8404 15.4442 13.4238 15.4684 13.1302 15.2505L13.046 15.1779L11.8435 13.9753L10.6409 15.1779C10.348 15.4708 9.87314 15.4708 9.58024 15.1779C9.31398 14.9116 9.28977 14.495 9.50762 14.2014L9.58024 14.1173L10.7828 12.9147L9.58004 11.7119C9.28715 11.419 9.28715 10.9441 9.58004 10.6513Z" fill="#200E32"/>
</svg>
