<svg width="24" height="24" viewBox="0 0 24 24" fill="none" xmlns="http://www.w3.org/2000/svg">
<path fill-rule="evenodd" clip-rule="evenodd" d="M14.6063 2.01188C14.5632 2.0042 14.5189 2.00018 14.4736 2.00018C14.4283 2.00018 14.384 2.0042 14.3409 2.01188H8.08431C5.59701 2.01188 3.50031 4.02971 3.50031 6.49088V17.2279C3.50031 19.8254 5.50115 21.8649 8.08431 21.8649H16.0723C18.528 21.8649 20.5523 19.7229 20.5523 17.2279V8.03788C20.5523 7.84424 20.4774 7.65811 20.3433 7.51843L15.2773 2.24243C15.1359 2.09514 14.9405 2.01188 14.7363 2.01188H14.6063ZM13.7236 3.51108L8.08431 3.51188C6.41284 3.51188 5.00031 4.87128 5.00031 6.49088V17.2279C5.00031 19.0033 6.33606 20.3649 8.08431 20.3649H16.0723C17.68 20.3649 19.0523 18.9128 19.0523 17.2279L19.052 8.98326L18.1755 8.98625C17.842 8.98585 17.4627 8.98514 17.041 8.98418C15.2707 8.98044 13.8264 7.59366 13.7289 5.84759L13.7236 5.65918V3.51108ZM18.231 7.48402L17.0443 7.48419C16.0379 7.48206 15.2236 6.66575 15.2236 5.65918V4.35203L18.231 7.48402ZM10.8906 11.256V16.0136L10.8975 16.1154C10.9471 16.4814 11.2609 16.7636 11.6406 16.7636C12.0548 16.7636 12.3906 16.4278 12.3906 16.0136V11.2567L13.9478 12.8204L14.0317 12.8932C14.3249 13.1117 14.7416 13.0883 15.0084 12.8226C15.3019 12.5304 15.3029 12.0555 15.0107 11.762L12.1731 8.91241C12.1469 8.88599 12.1187 8.86151 12.0888 8.8392L12.0874 8.83798C11.7933 8.61899 11.3751 8.64336 11.1087 8.91107L8.27066 11.7621L8.19824 11.8464C7.98106 12.1405 8.00621 12.5571 8.27309 12.8227L8.35737 12.8951C8.65148 13.1123 9.06809 13.0872 9.33375 12.8203L10.8906 11.256Z" fill="#200E32"/>
</svg>
