<svg width="24" height="24" viewBox="0 0 24 24" fill="none" xmlns="http://www.w3.org/2000/svg">
<path fill-rule="evenodd" clip-rule="evenodd" d="M14.4738 2.00018C14.5191 2.00018 14.5634 2.0042 14.6065 2.01188H14.7365C14.9407 2.01188 15.136 2.09514 15.2775 2.24243L20.3435 7.51843C20.4776 7.65811 20.5525 7.84424 20.5525 8.03788V17.3399C20.5525 19.8199 18.5411 21.8649 16.0725 21.8649H8.08449C5.48593 21.8649 3.50049 19.9221 3.50049 17.3399V6.49088C3.50049 4.02941 5.59651 2.01188 8.08449 2.01188H14.3411C14.3842 2.0042 14.4285 2.00018 14.4738 2.00018ZM8.08449 3.51188L13.7238 3.51108V5.65918L13.729 5.84759C13.8265 7.59366 15.2709 8.98044 17.0412 8.98418C17.4629 8.98514 17.8422 8.98585 18.1757 8.98625L19.052 8.98327L19.0525 17.3399C19.0525 18.997 17.707 20.3649 16.0725 20.3649H8.08449C6.30715 20.3649 5.00049 19.0863 5.00049 17.3399V6.49088C5.00049 4.87092 6.4124 3.51188 8.08449 3.51188ZM17.0445 7.48419L18.231 7.48402L15.2238 4.35224V5.65918C15.2238 6.66575 16.0381 7.48206 17.0445 7.48419ZM15.0441 13.7472C15.0441 13.333 14.7083 12.9972 14.2941 12.9972H9.39309L9.29132 13.004C8.92524 13.0537 8.64309 13.3675 8.64309 13.7472C8.64309 14.1614 8.97887 14.4972 9.39309 14.4972H14.2941L14.3959 14.4903C14.7619 14.4407 15.0441 14.1269 15.0441 13.7472Z" fill="#200E32"/>
</svg>
