<svg width="24" height="24" viewBox="0 0 24 24" fill="none" xmlns="http://www.w3.org/2000/svg">
<path fill-rule="evenodd" clip-rule="evenodd" d="M14.6063 2.01188C14.5632 2.0042 14.5189 2.00018 14.4736 2.00018C14.4283 2.00018 14.384 2.0042 14.3409 2.01188H8.08431C5.59701 2.01188 3.50031 4.02971 3.50031 6.49088V17.3399C3.50031 19.9221 5.48575 21.8649 8.08431 21.8649H16.0723C18.5409 21.8649 20.5523 19.8199 20.5523 17.3399V8.03788C20.5523 7.84424 20.4774 7.65811 20.3433 7.51843L15.2773 2.24243C15.1359 2.09514 14.9405 2.01188 14.7363 2.01188H14.6063ZM13.7236 3.51108L8.08431 3.51188C6.41284 3.51188 5.00031 4.87128 5.00031 6.49088V17.3399C5.00031 19.0863 6.30697 20.3649 8.08431 20.3649H16.0723C17.7068 20.3649 19.0523 18.997 19.0523 17.3399L19.052 8.98326L18.1755 8.98625C17.842 8.98585 17.4627 8.98514 17.041 8.98418C15.2707 8.98044 13.8264 7.59366 13.7289 5.84759L13.7236 5.65918V3.51108ZM18.231 7.48402L17.0443 7.48419C16.0379 7.48206 15.2236 6.66575 15.2236 5.65918V4.35203L18.231 7.48402ZM14.2944 12.1642C14.7086 12.1642 15.0444 12.5 15.0444 12.9142C15.0444 13.2939 14.7623 13.6077 14.3962 13.6573L14.2944 13.6642H12.5937V15.3654C12.5937 15.7796 12.2579 16.1154 11.8437 16.1154C11.464 16.1154 11.1502 15.8332 11.1006 15.4672L11.0937 15.3654V13.6642H9.3934C8.97919 13.6642 8.6434 13.3284 8.6434 12.9142C8.6434 12.5345 8.92556 12.2207 9.29163 12.171L9.3934 12.1642H11.0937V10.4644C11.0937 10.0502 11.4295 9.71438 11.8437 9.71438C12.2234 9.71438 12.5372 9.99654 12.5869 10.3626L12.5937 10.4644V12.1642H14.2944Z" fill="#200E32"/>
</svg>
