<svg width="24" height="24" viewBox="0 0 24 24" fill="none" xmlns="http://www.w3.org/2000/svg">
<path fill-rule="evenodd" clip-rule="evenodd" d="M16.3344 2.00018H7.66543C4.26785 2.00018 2.00043 4.43278 2.00043 7.91618V16.0842C2.00043 19.5709 4.2618 22.0002 7.66543 22.0002H16.3334C19.738 22.0002 22.0004 19.5709 22.0004 16.0842V7.91618C22.0004 4.42969 19.7382 2.00018 16.3344 2.00018ZM7.66543 3.50018H16.3344C18.8849 3.50018 20.5004 5.23515 20.5004 7.91618V16.0842C20.5004 18.7653 18.8848 20.5002 16.3334 20.5002H7.66543C5.11519 20.5002 3.50043 18.7655 3.50043 16.0842V7.91618C3.50043 5.23856 5.12077 3.50018 7.66543 3.50018ZM8.84033 9.39818C7.40418 9.39818 6.23933 10.5639 6.23933 12.0002C6.23933 13.4365 7.40418 14.6022 8.84033 14.6022C10.0165 14.6022 11.0105 13.8213 11.3325 12.7502L13.4316 12.7501V13.8517L13.4385 13.9535C13.4881 14.3195 13.8019 14.6017 14.1816 14.6017C14.5958 14.6017 14.9316 14.2659 14.9316 13.8517V12.75L16.26 12.75L16.2603 13.8522L16.2672 13.954C16.3168 14.32 16.6306 14.6022 17.0103 14.6022C17.4245 14.6022 17.7603 14.2664 17.7603 13.8522V12.0002L17.7535 11.8984C17.7038 11.5323 17.39 11.2502 17.0103 11.2502H14.2093C14.2001 11.2499 14.1909 11.2497 14.1816 11.2497C14.1724 11.2497 14.1632 11.2499 14.154 11.2502H11.3325C11.0105 10.179 10.0165 9.39818 8.84033 9.39818ZM8.84033 10.8982C9.44871 10.8982 9.94233 11.392 9.94233 12.0002C9.94233 12.6084 9.44871 13.1022 8.84033 13.1022C8.23286 13.1022 7.73933 12.6083 7.73933 12.0002C7.73933 11.3921 8.23286 10.8982 8.84033 10.8982Z" fill="#200E32"/>
</svg>
