<svg width="24" height="24" viewBox="0 0 24 24" fill="none" xmlns="http://www.w3.org/2000/svg">
<path fill-rule="evenodd" clip-rule="evenodd" d="M12 2C6.47716 2 2 6.47716 2 12C2 17.5228 6.47716 22 12 22C17.5228 22 22 17.5228 22 12C22 6.47716 17.5228 2 12 2ZM12 3.39535C16.7522 3.39535 20.6047 7.24779 20.6047 12C20.6047 16.7522 16.7522 20.6047 12 20.6047C7.24779 20.6047 3.39535 16.7522 3.39535 12C3.39535 7.24779 7.24779 3.39535 12 3.39535ZM10.8714 8.05454L10.7674 8.04465C10.5703 8.03789 10.3671 8.08735 10.1879 8.18402C9.95592 8.30819 9.76869 8.50941 9.66488 8.75855C9.61716 8.87387 9.53465 9.22989 9.49754 9.43665C9.40435 9.94479 9.35014 10.7263 9.34096 11.5838L9.33957 11.8723C9.33859 12.7822 9.38883 13.6482 9.48166 14.2189L9.53256 14.4811C9.58323 14.7141 9.65054 14.9626 9.70449 15.0673C9.91027 15.4649 10.3289 15.7104 10.7738 15.6963C10.9636 15.6921 11.3622 15.5596 11.6394 15.4432C12.6376 15.0232 14.3957 13.8463 15.208 13.0528L15.4777 12.772C15.581 12.6617 15.6275 12.6104 15.6668 12.5567C15.8137 12.357 15.8903 12.1158 15.8903 11.8715C15.8903 11.612 15.8048 11.3587 15.6418 11.152L15.5621 11.0598L15.3385 10.8211C14.5715 10.0036 12.5645 8.65585 11.5392 8.2575C11.3137 8.16839 11.0595 8.08299 10.8714 8.05454ZM10.906 9.51163L11.0302 9.55666C11.8166 9.86225 13.4854 10.9698 14.1974 11.6515L14.4093 11.8698L14.329 11.9564C13.7353 12.5965 11.9821 13.7852 11.0988 14.1568L10.9069 14.227L10.8585 13.9922C10.7889 13.5646 10.7447 12.8877 10.7363 12.151L10.7349 11.8723C10.7341 11.0688 10.7751 10.319 10.8458 9.83642L10.8798 9.63757L10.906 9.51163Z" fill="#200E32"/>
</svg>
