<svg width="24" height="24" viewBox="0 0 24 24" fill="none" xmlns="http://www.w3.org/2000/svg">
<path fill-rule="evenodd" clip-rule="evenodd" d="M9.14486 3.71496C9.14461 3.31985 8.81799 2.99975 8.41534 3L6.78185 3.001L6.58449 3.00596C4.49232 3.10911 2.82902 4.80561 2.82902 6.88317V8.74985L2.83568 8.84692C2.88395 9.19611 3.18899 9.46525 3.55809 9.46525C3.96075 9.46525 4.28716 9.14495 4.28716 8.74985V6.88317L4.29207 6.72825C4.37347 5.44759 5.45718 4.43329 6.78313 4.43181L8.41625 4.43081L8.51517 4.42422C8.871 4.37663 9.14509 4.07714 9.14486 3.71496ZM17.2097 3C19.3243 3 21.0628 4.643 21.1662 6.69375L21.1711 6.88716V8.74985C21.1711 9.14495 20.8447 9.46525 20.442 9.46525C20.0729 9.46525 19.7679 9.19611 19.7196 8.84692L19.7129 8.74985V6.88716C19.7129 5.58941 18.6702 4.5163 17.3672 4.43567L17.2097 4.43081H15.6118C15.2092 4.43081 14.8827 4.11051 14.8827 3.7154C14.8827 3.35322 15.157 3.0539 15.5129 3.00653L15.6118 3H17.2097ZM22.2709 12.0755C22.6736 12.0755 23 12.3958 23 12.7909C23 13.1531 22.7257 13.4524 22.3699 13.4998L22.2709 13.5063H21.1711V17.1128C21.1711 19.1872 19.4964 20.8937 17.4067 20.9952L17.2097 21H15.6118C15.2092 21 14.8827 20.6797 14.8827 20.2846C14.8827 19.9224 15.157 19.6231 15.5129 19.5757L15.6118 19.5692H17.2097C18.5318 19.5692 19.6258 18.5454 19.708 17.2674L19.7129 17.1128V13.5063H4.28716V17.1168C4.28716 18.4176 5.31987 19.4819 6.62489 19.5632L6.78276 19.5682L8.41625 19.5692C8.8189 19.5694 9.14511 19.8899 9.14486 20.285C9.14463 20.6472 8.87016 20.9464 8.51427 20.9935L8.41534 21L6.78147 20.999C4.66407 20.9966 2.93661 19.363 2.83386 17.3105L2.82902 17.1168V13.5063H1.72907C1.32642 13.5063 1 13.186 1 12.7909C1 12.4287 1.27428 12.1294 1.63014 12.082L1.72907 12.0755H3.55809H20.442H22.2709Z" fill="#200E32"/>
</svg>
