<svg width="24" height="24" viewBox="0 0 24 24" fill="none" xmlns="http://www.w3.org/2000/svg">
<path fill-rule="evenodd" clip-rule="evenodd" d="M4.74174 4.37005L11.3853 2.10169C11.7837 1.96605 12.218 1.96605 12.6156 2.10202L19.2574 4.36977C20.002 4.62306 20.5 5.30545 20.5 6.07198V12.7136C20.5 14.7332 19.7483 16.6795 18.394 18.1969C17.7539 18.9134 16.94 19.5103 15.9568 20.0269L12.3658 21.9116C12.1414 22.0294 11.8711 22.0295 11.6466 21.9118L8.04965 20.0261C7.06274 19.5088 6.24863 18.9128 5.60912 18.196C4.2529 16.6789 3.5 14.7315 3.5 12.7097V6.07198C3.5 5.30545 3.99797 4.62306 4.74174 4.37005ZM18.7563 5.75777L12.1131 3.48951C12.0404 3.46466 11.9599 3.46466 11.8866 3.48962L5.24283 5.75805C5.1055 5.80477 5.01389 5.9303 5.01389 6.07198V12.7097C5.01389 14.3761 5.63446 15.9813 6.75256 17.232C7.26112 17.802 7.9318 18.293 8.76848 18.7316L12.0049 20.4283L15.2369 18.7329C15.966 18.3498 16.571 17.9251 17.052 17.4431L17.2505 17.2329C18.3664 15.9826 18.9861 14.3782 18.9861 12.7136V6.07198C18.9861 5.9303 18.8945 5.80477 18.7563 5.75777ZM9.56836 9.41219C9.83709 9.15109 10.2576 9.12735 10.5539 9.34098L10.6388 9.41219L12.0001 10.7348L13.3614 9.41219C13.657 9.12498 14.1362 9.12498 14.4318 9.41219C14.7006 9.6733 14.725 10.0819 14.5051 10.3698L14.4318 10.4523L13.0706 11.7749L14.4316 13.0973C14.7273 13.3845 14.7273 13.8502 14.4316 14.1374C14.1629 14.3985 13.7424 14.4223 13.4461 14.2086L13.3612 14.1374L12.0001 12.815L10.639 14.1374C10.3434 14.4246 9.86416 14.4246 9.56856 14.1374C9.29983 13.8763 9.27539 13.4677 9.49527 13.1798L9.56856 13.0973L10.9296 11.7749L9.56836 10.4523C9.27275 10.1651 9.27275 9.69941 9.56836 9.41219Z" fill="#200E32"/>
</svg>
