<svg width="24" height="24" viewBox="0 0 24 24" fill="none" xmlns="http://www.w3.org/2000/svg">
<path fill-rule="evenodd" clip-rule="evenodd" d="M11.3853 2.10169L4.74174 4.37005C3.99797 4.62306 3.5 5.30545 3.5 6.07198V12.7097C3.5 14.7315 4.2529 16.6789 5.60912 18.196C6.24795 18.9121 7.06192 19.5077 8.04931 20.0259L11.6466 21.9118C11.8711 22.0295 12.1414 22.0294 12.3658 21.9116L15.9568 20.0269C16.9415 19.5095 17.7555 18.9127 18.3944 18.1964C19.7486 16.6804 20.5 14.7342 20.5 12.7136V6.07198C20.5 5.30545 20.002 4.62306 19.2574 4.36977L12.6156 2.10202C12.218 1.96605 11.7837 1.96605 11.3853 2.10169ZM12.1131 3.48951L18.7563 5.75777C18.8945 5.80477 18.9861 5.9303 18.9861 6.07198V12.7136C18.9861 14.3792 18.3668 15.9832 17.2508 17.2327L17.0525 17.4427C16.5722 17.9246 15.9672 18.3492 15.2369 18.7329L12.005 20.4283L8.76848 18.7316C7.9313 18.2922 7.26044 17.8013 6.75256 17.232C5.63446 15.9813 5.01389 14.3761 5.01389 12.7097V6.07198C5.01389 5.9303 5.1055 5.80477 5.24283 5.75805L11.8866 3.48962C11.9599 3.46466 12.0404 3.46466 12.1131 3.48951ZM15.7553 9.2399C15.4597 8.95269 14.9804 8.95269 14.6848 9.2399L11.2854 12.5422L9.91181 11.2062L9.82693 11.1349C9.53066 10.9212 9.11013 10.9448 8.84132 11.2059C8.54564 11.493 8.54551 11.9587 8.84104 12.246L10.7506 14.1023L10.8355 14.1735C11.1318 14.3872 11.5524 14.3636 11.8212 14.1024L15.7553 10.28L15.8286 10.1975C16.0485 9.90959 16.024 9.501 15.7553 9.2399Z" fill="#200E32"/>
</svg>
