<svg width="24" height="24" viewBox="0 0 24 24" fill="none" xmlns="http://www.w3.org/2000/svg">
<path fill-rule="evenodd" clip-rule="evenodd" d="M7.35854 3.23021C7.06443 3.01114 6.64618 3.03548 6.37966 3.30323L2.30188 7.3999L2.22946 7.48419C2.01228 7.7783 2.03745 8.19491 2.30433 8.46056L2.38862 8.53298C2.68273 8.75016 3.09934 8.72499 3.36499 8.45811L6.1611 5.64851V17.4507L6.16795 17.5524C6.21761 17.9185 6.53141 18.2007 6.9111 18.2007C7.32532 18.2007 7.6611 17.8649 7.6611 17.4507V5.64864L10.4574 8.45811L10.5414 8.53092C10.8345 8.74945 11.2512 8.72621 11.5181 8.46056C11.8117 8.16834 11.8128 7.69347 11.5205 7.3999L7.44277 3.30323L7.43757 3.29873C7.41468 3.27617 7.39035 3.25507 7.36473 3.23558L7.35854 3.23021ZM17.5827 6.44468C17.533 6.0786 17.2192 5.79645 16.8395 5.79645C16.4253 5.79645 16.0895 6.13223 16.0895 6.54645V18.3481L13.2932 15.539L13.2093 15.4662C12.9162 15.2477 12.4994 15.2709 12.2326 15.5366C11.939 15.8288 11.9379 16.3036 12.2301 16.5972L16.3079 20.6939L16.3131 20.6984C16.336 20.721 16.3603 20.7421 16.3859 20.7615L16.3921 20.7669C16.6862 20.986 17.1045 20.9616 17.371 20.6939L21.4488 16.5972L21.5212 16.5129C21.7384 16.2188 21.7132 15.8022 21.4463 15.5366C21.1527 15.2443 20.6779 15.2454 20.3857 15.539L17.5895 18.3472V6.54645L17.5827 6.44468Z" fill="#200E32"/>
</svg>
