<svg width="24" height="24" viewBox="0 0 24 24" fill="none" xmlns="http://www.w3.org/2000/svg">
<path fill-rule="evenodd" clip-rule="evenodd" d="M17.8563 2.99982H6.14431C3.85609 2.99982 2.00131 4.8546 2.00131 7.14282L2.00031 9.93255C2.00016 10.3469 2.33599 10.6828 2.75031 10.6828C3.60208 10.6828 4.23931 11.2856 4.23931 12.0848C4.23931 12.9096 3.57509 13.5738 2.75031 13.5738C2.33609 13.5738 2.00031 13.9096 2.00031 14.3238V17.0238C2.00031 19.3122 3.85421 21.1668 6.14231 21.1668H17.8573C20.1462 21.1668 22.0003 19.3123 22.0003 17.0238V14.3238C22.0003 13.9096 21.6645 13.5738 21.2503 13.5738C20.4246 13.5738 19.7603 12.9097 19.7603 12.0848C19.7603 11.3079 20.3484 10.6744 21.1063 10.6026L21.2503 10.5958C21.6647 10.5958 22.0006 10.2597 22.0003 9.84526L21.9983 7.14226C21.9983 4.85448 20.1444 2.99982 17.8563 2.99982ZM17.8563 4.49982L18.0234 4.50502C19.405 4.59122 20.4983 5.73893 20.4983 7.14282L20.5 9.19102L20.4003 9.21773C19.1616 9.58274 18.2603 10.7261 18.2603 12.0848L18.2654 12.2607C18.3393 13.541 19.2156 14.6026 20.4004 14.9518L20.5 14.977L20.5003 17.0238C20.5003 18.484 19.3177 19.6668 17.8573 19.6668H6.1423L5.97518 19.6616C4.59357 19.5754 3.50031 18.4277 3.50031 17.0238L3.50001 14.977L3.59979 14.9518C4.83799 14.5866 5.73931 13.4428 5.73931 12.0848L5.73427 11.9099C5.6608 10.6388 4.79006 9.62855 3.60302 9.29797L3.50001 9.27202L3.50131 7.14309C3.50131 5.68303 4.68452 4.49982 6.14431 4.49982H17.8563ZM10.431 9.87802L8.87682 10.1041L8.76625 10.1267C8.05148 10.3144 7.7892 11.2258 8.33761 11.7617L9.46301 12.858L9.19763 14.4084L9.18498 14.5154C9.13709 15.2554 9.9271 15.7887 10.6066 15.4343L11.999 14.702L13.3907 15.4331L13.4887 15.4779C14.1786 15.7503 14.9318 15.1665 14.802 14.4087L14.535 12.858L15.6618 11.7628L15.7382 11.6796C16.2075 11.1079 15.883 10.2168 15.1259 10.1044L13.568 9.87802L12.8713 8.46727C12.5167 7.74503 11.4872 7.74503 11.1292 8.46554L10.431 9.87802ZM11.999 10.09L12.3973 10.8954L12.4502 10.9859C12.5676 11.158 12.7526 11.2751 12.9619 11.3055L13.847 11.434L13.2068 12.0588L13.1368 12.1371C13.009 12.3021 12.9548 12.5145 12.9906 12.7233L13.142 13.608L12.3489 13.1905L12.2529 13.1483C12.0566 13.0779 11.838 13.092 11.6507 13.1905L10.857 13.607L11.009 12.7233L11.0195 12.6188C11.0258 12.4103 10.9447 12.2067 10.793 12.059L10.152 11.434L11.0378 11.3055C11.282 11.27 11.4931 11.1166 11.6023 10.8954L11.999 10.09Z" fill="#200E32"/>
</svg>
