<svg width="24" height="24" viewBox="0 0 24 24" fill="none" xmlns="http://www.w3.org/2000/svg">
<path fill-rule="evenodd" clip-rule="evenodd" d="M18.8569 3H5.14308C2.85766 3 1.00107 4.84262 1.00107 7.12134L1 9.87555C0.999849 10.2662 1.28859 10.5891 1.66328 10.6402L1.76744 10.6473C2.60598 10.6473 3.2273 11.231 3.2273 12.0011C3.2273 12.7975 2.57944 13.4407 1.76744 13.4407C1.3436 13.4407 1 13.786 1 14.2121V16.8787C1 19.1577 2.85585 21 5.14201 21H18.858C21.1441 21 23 19.1577 23 16.8787V14.2121C23 13.786 22.6564 13.4407 22.2326 13.4407C21.4206 13.4407 20.7727 12.7975 20.7727 12.0011C20.7727 11.2043 21.4209 10.5604 22.2326 10.5604C22.6565 10.5604 23.0002 10.2148 23 9.78867L22.9989 7.12103C22.9989 4.84262 21.1423 3 18.8569 3ZM18.8569 4.54286L19.0286 4.54835C20.3903 4.63579 21.4641 5.75603 21.4641 7.12134L21.4641 9.11691L21.3818 9.13909C20.1416 9.50301 19.2378 10.6432 19.2378 12.0011L19.2429 12.1769C19.317 13.4564 20.1954 14.5142 21.3818 14.8621L21.4651 14.8841V16.8787C21.4651 18.3013 20.3007 19.4571 18.858 19.4571H14.6602V17.9247L14.6532 17.82C14.6023 17.4435 14.2812 17.1532 13.8927 17.1532C13.4689 17.1532 13.1253 17.4986 13.1253 17.9247V19.4571H5.14201L4.97027 19.4517C3.60799 19.3642 2.53488 18.2444 2.53488 16.8787V14.8831L2.61821 14.8621C3.85849 14.4984 4.76218 13.3588 4.76218 12.0011L4.75714 11.8262C4.68344 10.5557 3.81015 9.54859 2.62127 9.21916L2.53386 9.19714L2.53595 7.12164C2.53595 5.69915 3.70101 4.54286 5.14308 4.54286H13.1253V6.51802L13.1323 6.6227C13.1831 6.99924 13.5042 7.28945 13.8927 7.28945C14.3166 7.28945 14.6602 6.94407 14.6602 6.51802V4.54286H18.8569ZM13.8927 8.66085C14.2812 8.66085 14.6023 8.95106 14.6532 9.3276L14.6602 9.43227V14.391C14.6602 14.8171 14.3166 15.1624 13.8927 15.1624C13.5042 15.1624 13.1831 14.8722 13.1323 14.4957L13.1253 14.391V9.43227C13.1253 9.00623 13.4689 8.66085 13.8927 8.66085Z" fill="#200E32"/>
</svg>
