<svg width="24" height="24" viewBox="0 0 24 24" fill="none" xmlns="http://www.w3.org/2000/svg">
<path fill-rule="evenodd" clip-rule="evenodd" d="M16.3347 2.00018H7.6657C4.26813 2.00018 2.0007 4.43278 2.0007 7.91618V16.0842C2.0007 19.5712 4.2614 22.0002 7.6657 22.0002H16.3337C19.7383 22.0002 22.0007 19.5709 22.0007 16.0842V7.91618C22.0007 4.42969 19.7385 2.00018 16.3347 2.00018ZM7.6657 3.50018H16.3347C18.8852 3.50018 20.5007 5.23515 20.5007 7.91618V16.0842C20.5007 18.7653 18.8851 20.5002 16.3337 20.5002H7.6657C5.11484 20.5002 3.5007 18.7659 3.5007 16.0842V7.91618C3.5007 5.23856 5.12104 3.50018 7.6657 3.50018ZM12.7435 7.53191C12.6938 7.16584 12.38 6.88368 12.0003 6.88368C11.5861 6.88368 11.2503 7.21947 11.2503 7.63368V11.9947L11.2587 12.1064C11.2918 12.3265 11.4216 12.5228 11.6161 12.6388L15.0071 14.6618L15.098 14.708C15.4378 14.8529 15.8409 14.728 16.0354 14.4019L16.0817 14.311C16.2266 13.9712 16.1016 13.5681 15.7756 13.3736L12.75 11.568L12.7503 7.63368L12.7435 7.53191Z" fill="#200E32"/>
</svg>
