<svg width="24" height="24" viewBox="0 0 24 24" fill="none" xmlns="http://www.w3.org/2000/svg">
<path fill-rule="evenodd" clip-rule="evenodd" d="M11.9998 2.00049C6.47659 2.00049 1.9998 6.47727 1.9998 12.0005C1.9998 17.5237 6.47659 22.0005 11.9998 22.0005C17.523 22.0005 21.9998 17.5237 21.9998 12.0005C21.9998 6.47727 17.523 2.00049 11.9998 2.00049ZM11.9998 3.50049C16.6946 3.50049 20.4998 7.3057 20.4998 12.0005C20.4998 16.6953 16.6946 20.5005 11.9998 20.5005C7.30502 20.5005 3.4998 16.6953 3.4998 12.0005C3.4998 7.3057 7.30502 3.50049 11.9998 3.50049ZM12.4046 7.74512C12.3549 7.37904 12.0411 7.09689 11.6614 7.09689C11.2472 7.09689 10.9114 7.43267 10.9114 7.84689V12.6939L10.9198 12.8056C10.9529 13.0257 11.0827 13.222 11.2772 13.338L15.0472 15.587L15.1381 15.6332C15.4779 15.7781 15.881 15.6532 16.0755 15.3271L16.1218 15.2362C16.2667 14.8964 16.1417 14.4933 15.8156 14.2988L12.411 12.267L12.4114 7.84689L12.4046 7.74512Z" fill="#200E32"/>
</svg>
