<svg width="24" height="24" viewBox="0 0 24 24" fill="none" xmlns="http://www.w3.org/2000/svg">
<path fill-rule="evenodd" clip-rule="evenodd" d="M12.0099 2.00004C14.3242 2.00004 16.3577 3.44897 17.103 5.5666C17.2407 5.958 17.0299 6.38516 16.632 6.52068C16.2342 6.6562 15.8 6.44877 15.6622 6.05736C15.1279 4.53924 13.6694 3.5 12.0068 3.5C9.93984 3.49194 8.24532 5.0814 8.13294 7.08572L8.12705 7.28094V8.62631H15.8833C18.433 8.62631 20.5 10.6602 20.5 13.1692V17.4571C20.5 19.966 18.433 22 15.8833 22H8.11668C5.56704 22 3.5 19.966 3.5 17.4571V13.1692C3.5 11.1822 4.79648 9.4931 6.60239 8.87634L6.60239 7.27766C6.61542 4.35079 9.03752 1.98844 12.0099 2.00004ZM15.8833 10.1263H8.11668C6.40915 10.1263 5.02466 11.4886 5.02466 13.1692V17.4571C5.02466 19.1377 6.40915 20.5 8.11668 20.5H15.8833C17.5909 20.5 18.9753 19.1377 18.9753 17.4571V13.1692C18.9753 11.4886 17.5909 10.1263 15.8833 10.1263ZM12.7556 14.1006C12.7051 13.7345 12.3861 13.4524 12.0002 13.4524C11.5792 13.4524 11.2379 13.7882 11.2379 14.2024V16.4243L11.2448 16.5261C11.2953 16.8921 11.6143 17.1743 12.0002 17.1743C12.4212 17.1743 12.7625 16.8385 12.7625 16.4243V14.2024L12.7556 14.1006Z" fill="#200E32"/>
</svg>
