<svg width="24" height="24" viewBox="0 0 24 24" fill="none" xmlns="http://www.w3.org/2000/svg">
<path fill-rule="evenodd" clip-rule="evenodd" d="M12.5732 4.49982H6.3042C3.73909 4.49982 2.0002 6.21891 2.0002 8.68782V15.7028C2.0002 18.1717 3.73909 19.8908 6.3042 19.8908H12.5732C14.9914 19.8908 16.681 18.3553 16.8612 16.1067L19.5081 17.1886L19.6407 17.237C20.7925 17.6087 21.9999 16.7526 21.9999 15.5153V8.87632L21.9946 8.7353C21.9036 7.52863 20.6539 6.73455 19.5085 7.2019L16.8613 8.28392C16.6816 6.03369 14.9953 4.49982 12.5732 4.49982ZM15.3772 9.36735C15.3765 9.38544 15.3765 9.40361 15.3772 9.42182V14.9688C15.3765 14.987 15.3765 15.0052 15.3772 15.0233V15.7028C15.3772 17.3367 14.3094 18.3908 12.5732 18.3908H6.3042C4.5637 18.3908 3.5002 17.3394 3.5002 15.7028V8.68782C3.5002 7.0512 4.5637 5.99982 6.3042 5.99982H12.5732C14.3131 5.99982 15.3772 7.0516 15.3772 8.68782V9.36735ZM16.8772 14.4928V9.89788L20.0757 8.59056L20.1435 8.57141C20.3245 8.54203 20.4999 8.68152 20.4999 8.87632V15.5153L20.492 15.5854C20.4509 15.7642 20.2558 15.8736 20.0753 15.7999L16.8772 14.4928Z" fill="#200E32"/>
</svg>
