<svg width="24" height="24" viewBox="0 0 24 24" fill="none" xmlns="http://www.w3.org/2000/svg">
<path fill-rule="evenodd" clip-rule="evenodd" d="M12.124 2H11.8764C9.48715 2 7.54956 3.98148 7.54956 6.42483V10.9906C7.54956 13.4346 9.48685 15.4155 11.8764 15.4155H12.124C14.5135 15.4155 16.4508 13.4346 16.4508 10.9906V6.42483C16.4508 3.98148 14.5132 2 12.124 2ZM11.8764 3.50505H12.124C13.7004 3.50505 14.9791 4.81269 14.9791 6.42483V10.9906C14.9791 12.6034 13.7008 13.9104 12.124 13.9104H11.8764C10.2996 13.9104 9.02127 12.6034 9.02127 10.9906V6.42483C9.02127 4.81269 10.2999 3.50505 11.8764 3.50505ZM19.2641 10.2457C19.6705 10.2457 20 10.5827 20 10.9983C20 15.2633 16.8098 18.7653 12.7362 19.1453V21.2475C12.7362 21.6631 12.4068 22 12.0004 22C11.6278 22 11.32 21.7169 11.2712 21.3496L11.2645 21.2475V19.1454C7.19058 18.7658 4 15.2636 4 10.9983C4 10.5827 4.32945 10.2457 4.73585 10.2457C5.14225 10.2457 5.4717 10.5827 5.4717 10.9983C5.4717 14.6859 8.39402 17.6745 12 17.6745C15.606 17.6745 18.5283 14.6859 18.5283 10.9983C18.5283 10.5827 18.8577 10.2457 19.2641 10.2457Z" fill="#200E32"/>
</svg>
