<svg width="24" height="24" viewBox="0 0 24 24" fill="none" xmlns="http://www.w3.org/2000/svg">
<path fill-rule="evenodd" clip-rule="evenodd" d="M12.1235 2H11.8759C9.48683 2 7.54936 3.98148 7.54936 6.42483V10.9906C7.54936 13.4346 9.48653 15.4155 11.8759 15.4155H12.1235C14.5135 15.4155 16.4501 13.4349 16.4501 10.9906V6.42483C16.4501 3.98118 14.5133 2 12.1235 2ZM11.8759 3.50505H12.1235C13.6188 3.50505 14.8454 4.68051 14.9683 6.17705H13.8472L13.7474 6.18392C13.3882 6.23375 13.1114 6.5486 13.1114 6.92957C13.1114 7.34518 13.4409 7.6821 13.8472 7.6821H14.9785V9.35924H12.9129L12.813 9.36611C12.4539 9.41594 12.1771 9.73079 12.1771 10.1118C12.1771 10.5274 12.5065 10.8643 12.9129 10.8643H14.9785V10.9906C14.9785 12.6037 13.7008 13.9104 12.1235 13.9104H11.8759C10.2992 13.9104 9.02098 12.6034 9.02098 10.9906V6.42483C9.02098 4.81269 10.2996 3.50505 11.8759 3.50505ZM19.2642 10.2457C19.6706 10.2457 20 10.5827 20 10.9983C20 15.2632 16.8093 18.7654 12.7357 19.1453V21.2475C12.7357 21.6631 12.4063 22 11.9999 22C11.6274 22 11.3195 21.7169 11.2708 21.3496L11.2641 21.2475V19.1454C7.19039 18.7658 4 15.2636 4 10.9983C4 10.5827 4.32943 10.2457 4.73581 10.2457C5.14219 10.2457 5.47162 10.5827 5.47162 10.9983C5.47162 14.6859 8.39376 17.6745 11.9995 17.6745C15.6055 17.6745 18.5284 14.6857 18.5284 10.9983C18.5284 10.5827 18.8578 10.2457 19.2642 10.2457Z" fill="#200E32"/>
</svg>
