<svg width="24" height="24" viewBox="0 0 24 24" fill="none" xmlns="http://www.w3.org/2000/svg">
<path fill-rule="evenodd" clip-rule="evenodd" d="M12.987 3.25098L12.8312 3.25694C12.3215 3.30357 11.6943 3.59637 11.2741 3.95234L7.80299 6.78098L5.97142 6.78153C4.6039 6.78153 3.59108 7.80419 3.39733 9.18945C3.20404 10.7397 3.19817 13.3244 3.39733 14.7477L3.424 14.9307C3.66024 16.3131 4.62234 17.2195 5.97142 17.2195L7.80399 17.219L11.3639 20.111C11.8157 20.4909 12.4652 20.7623 12.9986 20.7491C14.0464 20.7808 14.994 20.0124 15.3374 18.8657C15.417 18.5698 15.4656 18.3119 15.5082 17.9767L15.6159 16.9827C15.7894 15.5966 15.7946 8.87313 15.6314 7.16148L15.5503 6.4231C15.4894 5.85966 15.4371 5.51356 15.3445 5.15966C15.0122 4.04972 14.1441 3.30122 13.1288 3.25249L12.987 3.25098ZM12.964 4.75041L13.002 4.75027C13.3741 4.73941 13.7427 5.03848 13.9005 5.56487L13.9437 5.75453C13.9708 5.89071 13.9952 6.04955 14.0204 6.25003L14.1269 7.20005C14.2909 8.51028 14.2909 15.4907 14.1272 16.7987L14.0988 17.0503L14.0655 17.3798C14.0146 17.8862 13.9735 18.1617 13.8945 18.4563C13.7427 18.9621 13.3746 19.2606 13.002 19.2497C12.8295 19.2528 12.5204 19.1237 12.3193 18.9547L8.54276 15.8873C8.40909 15.7787 8.24213 15.7195 8.06993 15.7195H5.97142C5.36403 15.7195 4.97939 15.3346 4.88464 14.5534C4.70268 13.2522 4.70825 10.7991 4.88434 9.38609C4.97893 8.71044 5.40371 8.28153 5.97142 8.28153H8.06993C8.24258 8.28153 8.40996 8.22196 8.54379 8.11287L12.2327 5.10596C12.4539 4.91879 12.8429 4.74781 12.964 4.75041ZM19.3324 6.1458C19.096 5.8057 18.6286 5.72168 18.2885 5.95814C17.9484 6.19459 17.8644 6.66197 18.1008 7.00206C18.9973 8.29151 19.5051 10.0095 19.5051 11.8765C19.5051 13.7433 18.9975 15.4602 18.1008 16.7499C17.8644 17.09 17.9484 17.5574 18.2885 17.7938C18.6286 18.0303 19.096 17.9463 19.3324 17.6062C20.4089 16.0578 21.0051 14.0413 21.0051 11.8765C21.0051 9.71148 20.4088 7.69398 19.3324 6.1458Z" fill="#200E32"/>
</svg>
