<svg width="24" height="24" viewBox="0 0 24 24" fill="none" xmlns="http://www.w3.org/2000/svg">
<path fill-rule="evenodd" clip-rule="evenodd" d="M20.5377 3.32643C20.3024 2.98156 19.8375 2.89639 19.4992 3.13619C19.1609 3.37599 19.0773 3.84995 19.3126 4.19482C20.7164 6.25284 21.5078 8.98228 21.5078 11.9422C21.5078 14.9023 20.7162 17.6327 19.3126 19.6906C19.0773 20.0354 19.1609 20.5094 19.4992 20.7492C19.8375 20.989 20.3024 20.9038 20.5377 20.5589C22.1203 18.2387 23 15.2045 23 11.9422C23 8.68003 22.1205 5.64684 20.5377 3.32643ZM10.5311 3.26065L10.6861 3.2546L10.8272 3.25613C11.8372 3.30555 12.7007 4.06459 13.0313 5.19016C13.1234 5.54903 13.1754 5.90001 13.236 6.47137L13.3167 7.22015C13.479 8.95588 13.4738 15.774 13.3012 17.1796L13.1941 18.1876C13.1517 18.5275 13.1034 18.789 13.0242 19.0891C12.6826 20.252 11.74 21.0311 10.6976 20.999C10.1671 21.0124 9.52098 20.7372 9.07152 20.3519L5.53009 17.4192L3.70741 17.4197C2.36468 17.4197 1.40832 16.5009 1.17341 15.0992L1.14689 14.9137C0.947973 13.4723 0.954152 10.8519 1.14681 9.27666C1.3396 7.8715 2.34629 6.83485 3.70741 6.83485L5.52909 6.83428L8.98222 3.96585C9.40026 3.60486 10.0241 3.30794 10.5311 3.26065ZM10.701 4.77499L10.6632 4.77514C10.5428 4.7725 10.1559 4.94588 9.93587 5.13569L6.26629 8.18492C6.13316 8.29555 5.96666 8.35596 5.79489 8.35596H3.70741C3.14209 8.35596 2.72023 8.79038 2.62606 9.47606C2.45054 10.9119 2.44467 13.3986 2.62636 14.7161C2.72068 15.5088 3.10264 15.8986 3.70741 15.8986H5.79489C5.9662 15.8986 6.1323 15.9587 6.26527 16.0688L10.022 19.1793C10.222 19.3508 10.5295 19.4817 10.701 19.4785C11.0717 19.4895 11.4379 19.1868 11.5889 18.6739C11.6674 18.3752 11.7083 18.0959 11.759 17.5823L11.7921 17.2481L11.8203 16.993C11.9832 15.6666 11.9832 8.58792 11.8201 7.25925L11.7141 6.29586C11.6891 6.09255 11.6648 5.93148 11.6378 5.79338L11.5949 5.60105C11.4379 5.06725 11.0712 4.76398 10.701 4.77499ZM16.086 6.23974C16.4243 5.99996 16.8893 6.08516 17.1245 6.43004C18.1407 7.92009 18.7034 9.86075 18.7034 11.9427C18.7034 14.0244 18.1409 15.9641 17.1245 17.4543C16.8893 17.7992 16.4243 17.8844 16.086 17.6446C15.7477 17.4048 15.6641 16.9309 15.8993 16.586C16.7368 15.3581 17.2112 13.7222 17.2112 11.9427C17.2112 10.163 16.7366 8.52602 15.8993 7.29836C15.6641 6.95348 15.7477 6.47952 16.086 6.23974Z" fill="#200E32"/>
</svg>
