<svg width="24" height="24" viewBox="0 0 24 24" fill="none" xmlns="http://www.w3.org/2000/svg">
<path fill-rule="evenodd" clip-rule="evenodd" d="M21.526 2.76368C21.2331 2.47078 20.7582 2.47078 20.4653 2.76368L15.5766 7.65238C15.5694 7.54237 15.5608 7.44517 15.5507 7.35299L15.4908 6.90563L15.389 5.99703C15.3382 5.56341 15.2886 5.26457 15.21 4.96132C14.8561 3.77851 13.9039 3.00351 12.8102 3.03714L12.6551 3.04333C12.1717 3.0903 11.5402 3.386 11.1182 3.74479L7.62299 6.60299L5.77834 6.60396L5.60111 6.60974C4.3169 6.69419 3.37921 7.69429 3.19317 9.02926C2.99835 10.5987 2.9921 13.2083 3.19325 14.6433C3.37388 16.139 4.36324 17.1325 5.77834 17.1325H6.09644L3.31767 19.9113L3.24505 19.9954C3.0272 20.2891 3.0514 20.7057 3.31767 20.972C3.61056 21.2649 4.08544 21.2649 4.37833 20.972L21.526 3.82434L21.5986 3.74022C21.8164 3.44661 21.7922 3.02994 21.526 2.76368ZM7.59644 15.6325L14.1121 9.11694L14.0985 8.17091C14.0902 7.87956 14.0782 7.68882 14.0606 7.52605L13.9749 6.86651L13.9233 6.38645C13.87 5.89237 13.8262 5.60095 13.7655 5.36476C13.6049 4.82851 13.2318 4.52488 12.817 4.53661C12.7104 4.53429 12.3958 4.6668 12.1696 4.82677L12.0789 4.89669L8.36558 7.93446C8.25839 8.02215 8.12957 8.07802 7.99369 8.09685L7.89069 8.10396H5.77834C5.20497 8.10396 4.77603 8.53864 4.68028 9.22514C4.50254 10.6575 4.49661 13.1359 4.68057 14.4492C4.77003 15.1895 5.1145 15.5787 5.65869 15.6273L5.77834 15.6325H7.59644ZM14.8706 13.4415C15.2847 13.4474 15.6157 13.7879 15.6098 14.2021L15.5932 15.0253C15.5726 15.7859 15.5403 16.361 15.4965 16.7703L15.3827 17.8276C15.3371 18.2105 15.2887 18.4775 15.2025 18.8006C14.8564 19.9571 13.9043 20.7315 12.8519 20.698C12.3752 20.7098 11.8047 20.4946 11.3661 20.1774L11.2083 20.054L9.81166 18.9147C9.4907 18.6529 9.44277 18.1804 9.7046 17.8594C9.94263 17.5677 10.3547 17.5015 10.6688 17.6886L10.7598 17.7524L12.167 18.9005C12.3685 19.0711 12.6808 19.2018 12.8563 19.1986C13.2323 19.2102 13.6049 18.9071 13.7592 18.3928L13.8134 18.1637C13.8375 18.0475 13.8577 17.9248 13.8771 17.7785L13.9928 16.7175C14.0515 16.2443 14.0924 15.4108 14.1099 14.1807C14.1159 13.7666 14.4564 13.4356 14.8706 13.4415Z" fill="#200E32"/>
</svg>
