<svg width="24" height="24" viewBox="0 0 24 24" fill="none" xmlns="http://www.w3.org/2000/svg">
<path fill-rule="evenodd" clip-rule="evenodd" d="M7.81204 2.5H16.188C19.3978 2.5 22 5.16116 22 8.44374V9.18592L22.0002 9.20241L22 9.21891V14.5201L22.0002 14.5366L22 14.5531V15.5563C22 18.8388 19.3978 21.5 16.188 21.5H7.81204C4.60219 21.5 2 18.8388 2 15.5563V8.44374C2 5.16116 4.60219 2.5 7.81204 2.5ZM20.5464 8.44374V8.45916H17.3504L17.1673 8.46431C15.4101 8.56244 14.0147 10.0491 14.0147 11.8695C14.0159 13.7531 15.5084 15.2787 17.3499 15.2798H20.5464V15.5563C20.5464 18.0179 18.595 20.0135 16.188 20.0135H7.81204C5.40498 20.0135 3.45358 18.0179 3.45358 15.5563V8.44374C3.45358 5.98214 5.40498 3.98651 7.81204 3.98651H16.188C18.595 3.98651 20.5464 5.98214 20.5464 8.44374ZM17.3508 9.94567L20.5464 9.94567V13.7933H17.3504L17.2033 13.7874C16.2329 13.7102 15.4689 12.8811 15.4683 11.869C15.4683 10.8074 16.3109 9.94632 17.3508 9.94567ZM18.521 11.8084C18.521 11.3979 18.1956 11.0652 17.7942 11.0652H17.4921L17.3935 11.072C17.0388 11.1212 16.7653 11.4322 16.7653 11.8084C16.7653 12.2189 17.0907 12.5517 17.4921 12.5517H17.7942L17.8928 12.5449C18.2475 12.4957 18.521 12.1847 18.521 11.8084ZM13.0807 7.74062C13.0807 7.33013 12.7553 6.99736 12.3539 6.99736H7.12203L7.0234 7.00415C6.66866 7.05337 6.39524 7.36434 6.39524 7.74062C6.39524 8.15111 6.72063 8.48388 7.12203 8.48388H12.3539L12.4525 8.47709C12.8073 8.42788 13.0807 8.1169 13.0807 7.74062Z" fill="#200E32"/>
</svg>
