<?xml version="1.0" encoding="utf-8"?>
<svg viewBox="169.906 83.581 21.95 25.044" width="21.95" height="25.044" xmlns="http://www.w3.org/2000/svg">
  <path fill-rule="evenodd" clip-rule="evenodd" d="M 14.607 2.012 C 14.564 2.004 14.519 2 14.474 2 C 14.429 2 14.384 2.004 14.341 2.012 L 8.084 2.012 C 5.596 2.012 3.5 4.03 3.5 6.491 L 3.5 17.204 C 3.5 19.805 5.504 21.865 8.084 21.865 L 16.073 21.865 C 18.526 21.865 20.552 19.703 20.552 17.204 L 20.552 8.038 C 20.552 7.844 20.477 7.658 20.343 7.518 L 15.278 2.242 C 15.136 2.095 14.941 2.012 14.737 2.012 L 14.607 2.012 Z M 13.724 3.511 L 8.084 3.512 C 6.412 3.512 5 4.871 5 6.491 L 5 17.204 C 5 18.985 6.342 20.365 8.084 20.365 L 16.073 20.365 C 17.675 20.365 19.052 18.896 19.052 17.204 L 19.051 8.983 L 18.176 8.986 C 17.842 8.986 17.462 8.985 17.04 8.984 C 15.271 8.98 13.827 7.593 13.729 5.848 L 13.724 5.659 L 13.724 3.511 Z M 18.23 7.484 L 17.044 7.484 C 16.038 7.482 15.224 6.666 15.224 5.659 L 15.224 4.353 L 18.23 7.484 Z" fill="#200E32" transform="matrix(1, 0, 0, 1, 166.405688, 86.76027)"/>
  <rect x="175.747" y="87.266" width="12.302" height="15.397" style="fill: rgb(255, 255, 255);"/>
  <path fill-rule="evenodd" clip-rule="evenodd" d="M 185.911 83.593 C 185.868 83.585 185.823 83.581 185.778 83.581 C 185.733 83.581 185.688 83.585 185.645 83.593 L 179.388 83.593 C 176.9 83.593 174.804 85.611 174.804 88.072 L 174.804 98.785 C 174.804 101.386 176.808 103.446 179.388 103.446 L 187.377 103.446 C 189.83 103.446 191.856 101.284 191.856 98.785 L 191.856 89.619 C 191.856 89.425 191.781 89.239 191.647 89.099 L 186.582 83.823 C 186.44 83.676 186.245 83.593 186.041 83.593 L 185.911 83.593 Z M 185.028 85.092 L 179.388 85.093 C 177.716 85.093 176.304 86.452 176.304 88.072 L 176.304 98.785 C 176.304 100.566 177.646 101.946 179.388 101.946 L 187.377 101.946 C 188.979 101.946 190.356 100.477 190.356 98.785 L 190.355 90.564 L 189.48 90.567 C 189.146 90.567 188.766 90.566 188.344 90.565 C 186.575 90.561 185.131 89.174 185.033 87.429 L 185.028 87.24 L 185.028 85.092 Z M 189.534 89.065 L 188.348 89.065 C 187.342 89.063 186.528 88.247 186.528 87.24 L 186.528 85.934 L 189.534 89.065 Z" fill="#200E32"/>
</svg>